<svg width="843" height="379" viewBox="0 0 843 379" fill="none" xmlns="http://www.w3.org/2000/svg">
<g clip-path="url(#clip0_10_51)">
<path d="M741.294 3.98935C738.553 4.96995 737.155 8.06906 738.171 10.911C738.842 12.7868 740.409 14.0652 742.178 14.4471C743.45 11.1572 744.636 7.83821 745.731 4.48797C744.423 3.69001 742.818 3.44406 741.294 3.98935Z" fill="white" fill-opacity="0.17"/>
<path d="M724.668 21.5498C724.345 21.6656 724.009 21.7481 723.665 21.7962C723.321 21.8444 722.975 21.8559 722.629 21.8374C722.282 21.8156 721.94 21.7582 721.6 21.6663C721.264 21.5766 720.935 21.4547 720.619 21.2981C720.303 21.1415 720.004 20.9526 719.722 20.739C719.442 20.5209 719.182 20.2805 718.946 20.0131C718.709 19.7456 718.501 19.4568 718.318 19.1477C718.135 18.8387 717.983 18.5148 717.862 18.1761C717.742 17.8408 717.654 17.4941 717.6 17.1391C717.545 16.7842 717.523 16.429 717.536 16.0722C717.549 15.7155 717.597 15.365 717.676 15.0186C717.758 14.6745 717.869 14.3389 718.015 14.0173C718.16 13.6958 718.337 13.3928 718.539 13.1107C718.744 12.8241 718.972 12.5628 719.226 12.3256C719.481 12.0884 719.757 11.881 720.054 11.7001C720.35 11.5191 720.662 11.3702 720.985 11.2545C721.312 11.1377 721.647 11.0552 721.991 11.007C722.335 10.9589 722.68 10.944 723.027 10.9658C723.375 10.9876 723.717 11.045 724.057 11.1369C724.392 11.2266 724.718 11.3497 725.034 11.5063C725.35 11.6628 725.652 11.8506 725.931 12.0654C726.215 12.2823 726.474 12.5228 726.707 12.7913C726.944 13.0587 727.155 13.3464 727.338 13.6555C727.521 13.9646 727.67 14.2896 727.789 14.6249C727.911 14.9635 728.002 15.3092 728.056 15.6641C728.111 16.019 728.13 16.3754 728.117 16.7322C728.107 17.0878 728.059 17.4382 727.977 17.7857C727.898 18.1288 727.784 18.4655 727.639 18.787C727.493 19.1086 727.32 19.4104 727.117 19.6925C726.913 19.9791 726.685 20.2405 726.43 20.4776C726.174 20.7115 725.899 20.9222 725.603 21.1031C725.306 21.2841 724.995 21.433 724.668 21.5498Z" fill="white" fill-opacity="0.17"/>
<path d="M726.231 41.5689C726.585 42.5582 727.196 43.3693 727.942 43.99C729.715 40.9591 731.413 37.8801 733.032 34.7619C731.882 34.2933 730.586 34.2062 729.35 34.6484C726.612 35.6279 725.213 38.7236 726.231 41.5689Z" fill="white" fill-opacity="0.17"/>
<path d="M695.997 5.41997C695.67 5.53682 695.335 5.61932 694.991 5.66748C694.65 5.71449 694.305 5.72933 693.958 5.70753C693.611 5.68573 693.265 5.62948 692.93 5.53978C692.59 5.44792 692.264 5.32479 691.948 5.16823C691.632 5.01167 691.334 4.82603 691.051 4.60912C690.767 4.39222 690.511 4.15058 690.275 3.88318C690.038 3.61577 689.827 3.3281 689.647 3.01787C689.466 2.7121 689.314 2.38823 689.193 2.04959C689.071 1.71095 688.983 1.36418 688.93 1.01258C688.872 0.658818 688.853 0.302411 688.866 -0.0543469C688.879 -0.411104 688.923 -0.763746 689.006 -1.10792C689.087 -1.45542 689.2 -1.7877 689.345 -2.10922C689.49 -2.43074 689.664 -2.73257 689.868 -3.01919C690.069 -3.30465 690.302 -3.56379 690.556 -3.80096C690.811 -4.03812 691.086 -4.24884 691.381 -4.42533C691.677 -4.60629 691.989 -4.75519 692.315 -4.87204C692.642 -4.98888 692.974 -5.07024 693.318 -5.1184C693.661 -5.16987 694.007 -5.18139 694.354 -5.15959C694.702 -5.1378 695.043 -5.08371 695.382 -4.99185C695.722 -4.89998 696.048 -4.77685 696.364 -4.62029C696.68 -4.46373 696.978 -4.27809 697.261 -4.06119C697.54 -3.84646 697.801 -3.60264 698.038 -3.33524C698.274 -3.06784 698.482 -2.77902 698.665 -2.46993C698.847 -2.16416 698.999 -1.8403 699.12 -1.50165C699.241 -1.16301 699.328 -0.819558 699.382 -0.464647C699.437 -0.109735 699.459 0.245526 699.446 0.602284C699.433 0.959041 699.385 1.30951 699.306 1.65586C699.225 2.00336 699.113 2.33563 698.968 2.65715C698.822 2.97868 698.649 3.28051 698.444 3.56712C698.239 3.85042 698.011 4.11173 697.756 4.34889C697.501 4.58606 697.225 4.79346 696.928 4.97441C696.632 5.15537 696.324 5.30313 695.997 5.41997Z" fill="white" fill-opacity="0.17"/>
<path d="M704.365 28.8127C704.039 28.9296 703.703 29.0121 703.359 29.0602C703.019 29.1072 702.672 29.1187 702.326 29.1003C701.979 29.0785 701.634 29.0222 701.297 28.9292C700.958 28.8407 700.632 28.7175 700.316 28.561C700 28.4044 699.702 28.2154 699.419 28.0019C699.136 27.785 698.88 27.5433 698.643 27.2759C698.406 27.0085 698.195 26.7208 698.016 26.4106C697.833 26.1015 697.681 25.7777 697.56 25.439C697.44 25.1037 697.352 24.7569 697.297 24.402C697.239 24.0482 697.22 23.6918 697.233 23.3351C697.247 22.9783 697.291 22.629 697.373 22.2815C697.456 21.9373 697.567 21.6017 697.712 21.2802C697.857 20.9587 698.031 20.6568 698.236 20.3736C698.438 20.0881 698.669 19.8256 698.924 19.5885C699.178 19.3513 699.454 19.1439 699.748 18.9641C700.044 18.7831 700.356 18.6342 700.682 18.5174C701.009 18.4005 701.341 18.3192 701.685 18.271C702.029 18.2229 702.374 18.208 702.721 18.2298C703.069 18.2516 703.411 18.309 703.751 18.4009C704.089 18.4894 704.415 18.6126 704.731 18.7691C705.047 18.9257 705.346 19.1147 705.628 19.3282C705.909 19.5463 706.168 19.7868 706.405 20.0542C706.641 20.3216 706.849 20.6104 707.032 20.9195C707.215 21.2286 707.367 21.5524 707.487 21.8878C707.608 22.2264 707.696 22.5732 707.751 22.9281C707.805 23.283 707.828 23.6383 707.814 23.995C707.801 24.3518 707.753 24.7022 707.675 25.0486C707.592 25.3928 707.481 25.7284 707.336 26.0499C707.191 26.3714 707.017 26.6732 706.811 26.9565C706.607 27.2432 706.379 27.5045 706.124 27.7416C705.868 27.9755 705.593 28.1862 705.297 28.3672C705 28.5481 704.692 28.6959 704.365 28.8127Z" fill="white" fill-opacity="0.17"/>
<path d="M712.732 52.2021C712.406 52.319 712.07 52.4015 711.726 52.4496C711.386 52.4966 711.041 52.5115 710.693 52.4897C710.346 52.4679 710.001 52.4116 709.665 52.3219C709.325 52.2301 709 52.1069 708.683 51.9504C708.367 51.7938 708.07 51.6082 707.786 51.3913C707.504 51.1777 707.247 50.9327 707.01 50.6653C706.774 50.3979 706.562 50.1103 706.383 49.8C706.201 49.4942 706.049 49.1704 705.928 48.8317C705.807 48.4931 705.719 48.1463 705.665 47.7947C705.607 47.441 705.588 47.0846 705.602 46.7278C705.615 46.371 705.658 46.0184 705.741 45.6742C705.823 45.3267 705.935 44.9945 706.08 44.6729C706.225 44.3514 706.399 44.0496 706.603 43.763C706.806 43.4808 707.037 43.2184 707.292 42.9812C707.547 42.744 707.822 42.5333 708.116 42.3568C708.412 42.1759 708.724 42.027 709.051 41.9101C709.377 41.7933 709.709 41.7119 710.053 41.6638C710.396 41.6123 710.742 41.6008 711.09 41.6226C711.437 41.6444 711.779 41.7018 712.118 41.7903C712.458 41.8822 712.783 42.0053 713.1 42.1619C713.416 42.3184 713.713 42.5041 713.997 42.721C714.276 42.9357 714.536 43.1795 714.773 43.4469C715.009 43.7143 715.218 44.0031 715.4 44.3122C715.582 44.618 715.734 44.9419 715.855 45.2805C715.976 45.6191 716.064 45.9659 716.118 46.3175C716.172 46.6724 716.195 47.0277 716.182 47.3844C716.168 47.7412 716.121 48.095 716.042 48.438C715.96 48.7855 715.848 49.1178 715.703 49.4393C715.558 49.7608 715.384 50.0627 715.18 50.3493C714.974 50.6326 714.746 50.8939 714.491 51.131C714.237 51.3682 713.96 51.5756 713.664 51.7566C713.367 51.9375 713.059 52.0853 712.732 52.2021Z" fill="white" fill-opacity="0.17"/>
<path d="M678.811 5.7635C677.793 2.91825 674.747 1.41251 672.006 2.39312C669.262 3.37486 667.866 6.4695 668.884 9.31474C669.901 12.16 672.944 13.6669 675.688 12.6851C678.429 11.7045 679.826 8.6021 678.811 5.7635Z" fill="white" fill-opacity="0.17"/>
<path d="M687.178 29.1529C686.161 26.311 683.115 24.8019 680.373 25.7826C677.629 26.7643 676.234 29.8623 677.251 32.7042C678.268 35.5494 681.312 37.0596 684.056 36.0779C686.797 35.0973 688.196 31.9982 687.178 29.1529Z" fill="white" fill-opacity="0.17"/>
<path d="M695.546 52.5457C694.528 49.7004 691.483 48.1947 688.742 49.1753C685.997 50.157 684.601 53.2517 685.619 56.0969C686.637 58.9422 689.679 60.449 692.423 59.4673C695.165 58.4867 696.564 55.3909 695.546 52.5457Z" fill="white" fill-opacity="0.17"/>
<path d="M697.109 72.5647C694.364 73.5465 692.969 76.6445 693.986 79.4864C694.703 81.4917 696.432 82.8094 698.347 83.0831C700.326 81.0421 702.245 78.9361 704.137 76.8137C704.079 76.5199 704.019 76.2306 703.916 75.9418C702.898 73.0965 699.85 71.5841 697.109 72.5647Z" fill="white" fill-opacity="0.17"/>
<path d="M658.505 13.0275C657.487 10.1823 654.445 8.67539 651.7 9.65714C648.959 10.6377 647.56 13.7335 648.578 16.5788C649.596 19.424 652.641 20.9298 655.382 19.9491C658.12 18.9697 659.52 15.8661 658.505 13.0275Z" fill="white" fill-opacity="0.17"/>
<path d="M666.872 36.4169C665.855 33.575 662.812 32.0648 660.067 33.0466C657.326 34.0272 655.928 37.1263 656.945 39.9682C657.963 42.8134 661.009 44.3225 663.75 43.3419C666.488 42.3624 667.89 39.2622 666.872 36.4169Z" fill="white" fill-opacity="0.17"/>
<path d="M675.24 59.8097C674.222 56.9644 671.18 55.4575 668.436 56.4393C665.695 57.4199 664.295 60.5157 665.313 63.3609C666.331 66.2062 669.376 67.7119 672.118 66.7313C674.856 65.7518 676.258 62.6549 675.24 59.8097Z" fill="white" fill-opacity="0.17"/>
<path d="M683.607 83.1991C682.591 80.3572 679.547 78.847 676.803 79.8288C674.062 80.8094 672.664 83.9085 673.68 86.7504C674.698 89.5956 677.745 91.1047 680.486 90.1241C683.224 89.1446 684.625 86.0444 683.607 83.1991Z" fill="white" fill-opacity="0.17"/>
<path d="M629.828 -3.10006C628.811 -5.94198 625.767 -7.45219 623.023 -6.47044C620.279 -5.48869 618.884 -2.39074 619.9 0.451187C620.918 3.29643 623.962 4.80664 626.706 3.82489C629.45 2.84314 630.843 -0.261456 629.828 -3.10006Z" fill="white" fill-opacity="0.17"/>
<path d="M638.196 20.2927C637.178 17.4474 634.136 15.9405 631.391 16.9223C628.647 17.904 627.251 20.9987 628.269 23.8439C629.287 26.6892 632.329 28.196 635.073 27.2143C637.818 26.2326 639.211 23.1313 638.196 20.2927Z" fill="white" fill-opacity="0.17"/>
<path d="M646.563 43.6821C645.546 40.8402 642.503 39.33 639.758 40.3117C637.014 41.2935 635.619 44.3914 636.636 47.2334C637.654 50.0786 640.697 51.5888 643.441 50.6071C646.186 49.6253 647.581 46.5273 646.563 43.6821Z" fill="white" fill-opacity="0.17"/>
<path d="M654.931 67.0748C653.913 64.2296 650.871 62.7227 648.127 63.7045C645.382 64.6862 643.986 67.7808 645.004 70.6261C646.022 73.4713 649.064 74.9782 651.809 73.9965C654.553 73.0147 655.949 69.9201 654.931 67.0748Z" fill="white" fill-opacity="0.17"/>
<path d="M663.298 90.4643C662.282 87.6224 659.238 86.1122 656.494 87.0939C653.75 88.0757 652.355 91.1736 653.371 94.0155C654.389 96.8608 657.432 98.371 660.177 97.3893C662.921 96.4075 664.316 93.3095 663.298 90.4643Z" fill="white" fill-opacity="0.17"/>
<path d="M662.426 112.339C663.474 111.676 664.529 110.999 665.567 110.317C665.331 110.364 665.096 110.403 664.862 110.487C663.847 110.85 663.014 111.511 662.426 112.339Z" fill="white" fill-opacity="0.17"/>
<path d="M606.403 11.0878C606.077 11.2046 605.741 11.2871 605.397 11.3353C605.053 11.3834 604.707 11.3949 604.361 11.3765C604.014 11.3547 603.672 11.2973 603.332 11.2054C602.996 11.1157 602.669 10.9893 602.353 10.8327C602.038 10.6795 601.736 10.4916 601.457 10.2769C601.174 10.06 600.914 9.81952 600.681 9.55097C600.445 9.28357 600.233 8.99589 600.05 8.68681C599.868 8.37772 599.719 8.05271 599.598 7.71407C599.478 7.37875 599.387 7.03312 599.332 6.6782C599.277 6.32329 599.258 5.96688 599.271 5.61013C599.281 5.25452 599.329 4.90405 599.411 4.55655C599.491 4.21352 599.605 3.87678 599.75 3.55526C599.895 3.23374 600.069 2.9319 600.271 2.64975C600.476 2.36314 600.704 2.10183 600.958 1.86466C601.213 1.6275 601.489 1.4201 601.786 1.23914C602.082 1.05819 602.394 0.909286 602.72 0.792438C603.044 0.676736 603.379 0.594234 603.723 0.546078C604.067 0.497922 604.412 0.483082 604.76 0.50488C605.107 0.526677 605.449 0.584082 605.789 0.675949C606.124 0.765642 606.453 0.887623 606.769 1.04418C607.085 1.20074 607.384 1.38971 607.667 1.60329C607.947 1.82134 608.206 2.06183 608.443 2.32923C608.679 2.59664 608.887 2.88546 609.07 3.19455C609.253 3.50364 609.405 3.8275 609.525 4.16282C609.646 4.50146 609.734 4.84824 609.789 5.20315C609.843 5.55806 609.866 5.91332 609.853 6.27008C609.839 6.62684 609.791 6.9773 609.713 7.32365C609.63 7.66783 609.519 8.00343 609.373 8.32163C609.228 8.64315 609.052 8.94945 608.849 9.2316C608.645 9.51821 608.417 9.77952 608.162 10.0167C607.906 10.2505 607.631 10.4613 607.335 10.6422C607.038 10.8232 606.727 10.9721 606.403 11.0878Z" fill="white" fill-opacity="0.17"/>
<path d="M614.77 34.4772C614.444 34.594 614.109 34.6765 613.765 34.7247C613.421 34.7728 613.076 34.7877 612.728 34.7659C612.381 34.7441 612.039 34.6867 611.7 34.5981C611.363 34.5051 611.038 34.382 610.722 34.2254C610.405 34.0689 610.105 33.8844 609.824 33.6663C609.541 33.4494 609.282 33.2089 609.048 32.9404C608.812 32.673 608.6 32.3853 608.418 32.0762C608.236 31.7704 608.087 31.4454 607.966 31.1068C607.845 30.7682 607.754 30.4225 607.7 30.0709C607.646 29.716 607.626 29.3596 607.64 29.0029C607.65 28.6472 607.696 28.2935 607.779 27.9493C607.858 27.6029 607.973 27.2695 608.118 26.948C608.263 26.6265 608.437 26.3246 608.638 26.0392C608.843 25.7526 609.072 25.4946 609.327 25.2574C609.581 25.0202 609.856 24.8095 610.154 24.6319C610.451 24.4509 610.762 24.302 611.089 24.1852C611.412 24.0695 611.747 23.987 612.091 23.9388C612.434 23.8873 612.781 23.8758 613.128 23.8976C613.475 23.9194 613.816 23.9735 614.156 24.0654C614.493 24.1584 614.822 24.2804 615.138 24.4369C615.454 24.5935 615.751 24.7791 616.035 24.996C616.314 25.2107 616.575 25.4546 616.811 25.722C617.048 25.9894 617.256 26.2782 617.438 26.5873C617.62 26.893 617.772 27.2169 617.893 27.5556C618.014 27.8942 618.101 28.2376 618.156 28.5926C618.211 28.9475 618.233 29.3027 618.22 29.6595C618.206 30.0162 618.158 30.3667 618.08 30.7131C617.998 31.0606 617.886 31.3928 617.741 31.7144C617.596 32.0359 617.419 32.3389 617.218 32.6243C617.012 32.9076 616.784 33.1689 616.529 33.4061C616.275 33.6433 615.998 33.8507 615.702 34.0316C615.405 34.2126 615.094 34.3615 614.77 34.4772Z" fill="white" fill-opacity="0.17"/>
<path d="M623.139 57.8699C622.812 57.9868 622.477 58.0693 622.133 58.1174C621.789 58.1656 621.443 58.1771 621.096 58.1586C620.749 58.1368 620.407 58.0794 620.067 57.9876C619.732 57.8979 619.406 57.7747 619.09 57.6182C618.774 57.4616 618.472 57.2738 618.193 57.0591C617.909 56.8422 617.65 56.6017 617.417 56.3331C617.18 56.0657 616.969 55.778 616.786 55.469C616.603 55.1599 616.454 54.8349 616.333 54.4962C616.213 54.1609 616.122 53.8153 616.067 53.4604C616.013 53.1054 615.994 52.749 616.007 52.3923C616.017 52.0367 616.065 51.6862 616.146 51.3387C616.226 50.9957 616.34 50.6589 616.485 50.3374C616.63 50.0159 616.804 49.7141 617.007 49.4319C617.211 49.1453 617.439 48.884 617.694 48.6468C617.949 48.4096 618.225 48.2023 618.521 48.0213C618.818 47.8403 619.129 47.6914 619.456 47.5746C619.779 47.4589 620.115 47.3764 620.459 47.3282C620.803 47.2801 621.148 47.2652 621.495 47.287C621.842 47.3088 622.184 47.3662 622.524 47.4581C622.86 47.5478 623.189 47.6698 623.505 47.8263C623.821 47.9829 624.12 48.1719 624.402 48.3854C624.682 48.6035 624.942 48.844 625.178 49.1114C625.415 49.3788 625.623 49.6676 625.806 49.9767C625.988 50.2858 626.14 50.6096 626.26 50.945C626.381 51.2836 626.469 51.6304 626.524 51.9853C626.579 52.3402 626.601 52.6955 626.588 53.0522C626.575 53.409 626.527 53.7595 626.448 54.1058C626.366 54.45 626.254 54.7856 626.109 55.1071C625.964 55.4286 625.787 55.7316 625.585 56.0137C625.38 56.3004 625.152 56.5617 624.898 56.7988C624.642 57.0327 624.367 57.2434 624.07 57.4244C623.774 57.6053 623.462 57.7542 623.139 57.8699Z" fill="white" fill-opacity="0.17"/>
<path d="M631.506 81.2593C631.179 81.3762 630.844 81.4587 630.5 81.5068C630.156 81.555 629.811 81.5698 629.464 81.548C629.116 81.5263 628.774 81.4688 628.436 81.3803C628.099 81.2873 627.773 81.1642 627.457 81.0076C627.141 80.851 626.84 80.6665 626.56 80.4485C626.278 80.2349 626.017 79.9911 625.784 79.7225C625.547 79.4551 625.336 79.1675 625.153 78.8584C624.971 78.5526 624.823 78.2276 624.701 77.889C624.58 77.5503 624.489 77.2047 624.436 76.8531C624.381 76.4982 624.362 76.1418 624.375 75.785C624.385 75.4294 624.432 75.0756 624.515 74.7314C624.593 74.3851 624.709 74.0517 624.854 73.7302C624.999 73.4086 625.172 73.1068 625.374 72.8213C625.579 72.538 625.807 72.2767 626.062 72.0396C626.317 71.8024 626.592 71.5917 626.889 71.414C627.186 71.2331 627.498 71.0842 627.824 70.9673C628.148 70.8516 628.483 70.7691 628.827 70.721C629.17 70.6695 629.516 70.658 629.863 70.6798C630.211 70.7016 630.553 70.759 630.891 70.8475C631.228 70.9405 631.557 71.0625 631.873 71.2191C632.189 71.3756 632.487 71.5613 632.77 71.7782C633.049 71.9929 633.31 72.2367 633.546 72.5041C633.783 72.7715 633.991 73.0604 634.174 73.3694C634.355 73.6752 634.507 73.9991 634.629 74.3377C634.75 74.6764 634.838 75.0231 634.891 75.3747C634.946 75.7296 634.968 76.0849 634.955 76.4417C634.942 76.7984 634.895 77.1522 634.815 77.4952C634.734 77.8427 634.621 78.175 634.476 78.4965C634.331 78.818 634.154 79.121 633.953 79.4065C633.747 79.6898 633.519 79.9511 633.265 80.1883C633.01 80.4254 632.734 80.6328 632.437 80.8138C632.141 80.9947 631.829 81.1436 631.506 81.2593Z" fill="white" fill-opacity="0.17"/>
<path d="M639.874 104.652C639.548 104.769 639.212 104.851 638.868 104.9C638.524 104.948 638.179 104.963 637.832 104.941C637.485 104.919 637.143 104.862 636.803 104.77C636.467 104.68 636.141 104.557 635.825 104.4C635.509 104.244 635.207 104.056 634.928 103.841C634.645 103.624 634.385 103.384 634.152 103.115C633.915 102.848 633.704 102.56 633.521 102.251C633.338 101.942 633.19 101.617 633.069 101.278C632.949 100.943 632.857 100.597 632.803 100.243C632.748 99.8876 632.729 99.5312 632.742 99.1745C632.752 98.8189 632.8 98.4684 632.882 98.1209C632.961 97.7779 633.076 97.4411 633.221 97.1196C633.366 96.7981 633.54 96.4962 633.742 96.2141C633.947 95.9275 634.175 95.6662 634.429 95.429C634.684 95.1918 634.96 94.9844 635.257 94.8035C635.553 94.6225 635.865 94.4736 636.191 94.3568C636.515 94.2411 636.85 94.1586 637.194 94.1104C637.538 94.0623 637.883 94.0474 638.23 94.0692C638.578 94.091 638.92 94.1484 639.26 94.2403C639.595 94.33 639.924 94.452 640.24 94.6085C640.556 94.7651 640.855 94.9541 641.137 95.1676C641.418 95.3857 641.677 95.6262 641.914 95.8936C642.15 96.161 642.358 96.4498 642.541 96.7589C642.724 97.068 642.876 97.3918 642.996 97.7272C643.117 98.0658 643.205 98.4126 643.26 98.7675C643.314 99.1224 643.337 99.4777 643.323 99.8344C643.31 100.191 643.262 100.542 643.184 100.888C643.101 101.232 642.99 101.568 642.845 101.889C642.7 102.211 642.523 102.514 642.32 102.796C642.116 103.083 641.888 103.344 641.633 103.581C641.378 103.818 641.102 104.026 640.806 104.207C640.509 104.388 640.198 104.536 639.874 104.652Z" fill="white" fill-opacity="0.17"/>
<path d="M644.56 117.75C642.094 118.632 640.731 121.224 641.216 123.803C644.289 122.396 647.325 120.906 650.309 119.333C648.9 117.706 646.644 117.004 644.56 117.75Z" fill="white" fill-opacity="0.17"/>
<path d="M586.094 18.3529C585.768 18.4698 585.432 18.5523 585.088 18.6004C584.744 18.6486 584.398 18.6601 584.052 18.6416C583.705 18.6198 583.363 18.5624 583.023 18.4706C582.687 18.3809 582.357 18.2556 582.041 18.099C581.726 17.9458 581.427 17.7568 581.148 17.5421C580.865 17.3252 580.605 17.0847 580.369 16.8173C580.132 16.5499 579.924 16.261 579.741 15.952C579.559 15.6429 579.407 15.319 579.286 14.9804C579.166 14.645 579.078 14.2983 579.023 13.9434C578.968 13.5884 578.946 13.2332 578.959 12.8764C578.972 12.5197 579.02 12.1692 579.102 11.8217C579.182 11.4787 579.293 11.1431 579.438 10.8216C579.583 10.5 579.76 10.1971 579.962 9.91491C580.167 9.62829 580.395 9.36698 580.649 9.12982C580.904 8.89265 581.18 8.68525 581.477 8.5043C581.773 8.32334 582.085 8.17444 582.411 8.05759C582.735 7.94189 583.07 7.85939 583.414 7.81123C583.758 7.76307 584.103 7.74823 584.451 7.77003C584.798 7.79183 585.14 7.84923 585.48 7.9411C585.815 8.03079 586.144 8.15277 586.46 8.30933C586.776 8.46589 587.075 8.65486 587.354 8.86959C587.638 9.08649 587.897 9.32698 588.134 9.59439C588.37 9.86179 588.578 10.1506 588.761 10.4597C588.944 10.7688 589.096 11.0927 589.216 11.428C589.337 11.7666 589.425 12.1134 589.48 12.4683C589.534 12.8232 589.557 13.1785 589.543 13.5352C589.53 13.892 589.482 14.2425 589.401 14.59C589.321 14.933 589.21 15.2686 589.064 15.5868C588.919 15.9083 588.743 16.2146 588.54 16.4967C588.336 16.7834 588.108 17.0447 587.853 17.2818C587.597 17.5157 587.322 17.7264 587.026 17.9074C586.729 18.0883 586.418 18.2372 586.094 18.3529Z" fill="white" fill-opacity="0.17"/>
<path d="M594.461 41.7423C594.135 41.8592 593.8 41.9417 593.456 41.9899C593.112 42.038 592.766 42.0528 592.419 42.031C592.072 42.0093 591.73 41.9518 591.391 41.8633C591.054 41.7703 590.725 41.6483 590.409 41.4917C590.093 41.3352 589.796 41.1495 589.515 40.9315C589.232 40.7146 588.973 40.4741 588.736 40.2067C588.499 39.9393 588.291 39.6505 588.109 39.3414C587.927 39.0356 587.775 38.7117 587.654 38.3731C587.533 38.0345 587.445 37.6877 587.391 37.3361C587.336 36.9812 587.314 36.6259 587.327 36.2692C587.341 35.9124 587.387 35.5586 587.47 35.2144C587.549 34.8681 587.661 34.5358 587.806 34.2143C587.951 33.8928 588.128 33.5898 588.329 33.3043C588.534 33.0177 588.763 32.7597 589.018 32.5226C589.272 32.2854 589.547 32.0747 589.845 31.897C590.142 31.7161 590.453 31.5672 590.78 31.4503C591.103 31.3346 591.438 31.2521 591.782 31.204C592.125 31.1525 592.471 31.141 592.819 31.1628C593.166 31.1846 593.507 31.2387 593.847 31.3305C594.184 31.4235 594.513 31.5455 594.829 31.7021C595.145 31.8586 595.442 32.0443 595.723 32.2623C596.005 32.4759 596.265 32.7197 596.502 32.9871C596.739 33.2545 596.947 33.5434 597.129 33.8524C597.311 34.1582 597.463 34.4821 597.584 34.8207C597.705 35.1594 597.792 35.5028 597.847 35.8577C597.901 36.2126 597.924 36.5679 597.911 36.9247C597.897 37.2814 597.849 37.6319 597.768 37.9794C597.689 38.3257 597.577 38.658 597.432 38.9795C597.287 39.301 597.11 39.604 596.909 39.8895C596.703 40.1728 596.475 40.4341 596.22 40.6713C595.966 40.9084 595.689 41.1158 595.393 41.2968C595.096 41.4777 594.785 41.6266 594.461 41.7423Z" fill="white" fill-opacity="0.17"/>
<path d="M602.83 65.1351C602.503 65.2519 602.168 65.3344 601.824 65.3826C601.48 65.4307 601.134 65.4423 600.787 65.4238C600.44 65.402 600.098 65.3446 599.758 65.2527C599.423 65.163 599.094 65.041 598.778 64.8845C598.462 64.7279 598.163 64.539 597.884 64.3242C597.6 64.1073 597.341 63.8668 597.104 63.5994C596.868 63.332 596.66 63.0432 596.477 62.7341C596.294 62.425 596.142 62.1012 596.021 61.7625C595.901 61.4272 595.813 61.0804 595.758 60.7255C595.704 60.3706 595.681 60.0153 595.695 59.6586C595.708 59.3018 595.756 58.9514 595.837 58.6039C595.917 58.2608 596.028 57.9252 596.173 57.6037C596.318 57.2822 596.495 56.9792 596.698 56.6971C596.902 56.4105 597.13 56.1491 597.385 55.912C597.64 55.6748 597.916 55.4674 598.212 55.2865C598.509 55.1055 598.82 54.9566 599.147 54.8398C599.47 54.7241 599.806 54.6416 600.15 54.5934C600.494 54.5452 600.839 54.5304 601.186 54.5522C601.533 54.574 601.875 54.6314 602.215 54.7233C602.551 54.813 602.88 54.9349 603.196 55.0915C603.512 55.2481 603.811 55.437 604.09 55.6518C604.373 55.8687 604.633 56.1091 604.869 56.3766C605.106 56.644 605.314 56.9328 605.497 57.2419C605.679 57.551 605.831 57.8748 605.951 58.2101C606.072 58.5488 606.16 58.8956 606.215 59.2505C606.27 59.6054 606.292 59.9606 606.279 60.3174C606.266 60.6742 606.218 61.0246 606.136 61.3721C606.056 61.7151 605.945 62.0507 605.8 62.3723C605.655 62.6938 605.478 62.9968 605.276 63.2789C605.071 63.5655 604.843 63.8268 604.589 64.064C604.333 64.2978 604.058 64.5086 603.761 64.6895C603.465 64.8705 603.153 65.0194 602.83 65.1351Z" fill="white" fill-opacity="0.17"/>
<path d="M611.197 88.5245C610.87 88.6413 610.535 88.7238 610.191 88.772C609.847 88.8202 609.502 88.835 609.155 88.8132C608.807 88.7914 608.465 88.734 608.127 88.6455C607.79 88.5524 607.461 88.4305 607.145 88.2739C606.829 88.1173 606.531 87.9317 606.251 87.7136C605.969 87.5001 605.708 87.2562 605.471 86.9888C605.235 86.7214 605.027 86.4326 604.844 86.1235C604.662 85.8178 604.51 85.4939 604.389 85.1553C604.268 84.8166 604.18 84.4698 604.127 84.1183C604.072 83.7633 604.05 83.4081 604.063 83.0513C604.076 82.6946 604.123 82.3408 604.206 81.9966C604.284 81.6502 604.396 81.318 604.541 80.9965C604.686 80.6749 604.863 80.3719 605.065 80.0865C605.27 79.8032 605.498 79.5419 605.753 79.3047C606.008 79.0675 606.283 78.8568 606.58 78.6792C606.877 78.4982 607.188 78.3493 607.515 78.2325C607.839 78.1168 608.174 78.0343 608.518 77.9861C608.861 77.9347 609.207 77.9231 609.554 77.9449C609.902 77.9667 610.244 78.0241 610.582 78.1127C610.919 78.2057 611.248 78.3277 611.564 78.4842C611.88 78.6408 612.178 78.8264 612.458 79.0445C612.74 79.2581 613.001 79.5019 613.237 79.7693C613.474 80.0367 613.682 80.3255 613.865 80.6346C614.046 80.9404 614.198 81.2642 614.32 81.6029C614.441 81.9415 614.529 82.2883 614.582 82.6399C614.637 82.9948 614.659 83.35 614.646 83.7068C614.633 84.0636 614.586 84.4174 614.503 84.7615C614.425 85.1079 614.312 85.4402 614.167 85.7617C614.022 86.0832 613.845 86.3862 613.644 86.6716C613.438 86.9549 613.21 87.2163 612.956 87.4534C612.701 87.6906 612.425 87.898 612.128 88.0789C611.832 88.2599 611.52 88.4088 611.197 88.5245Z" fill="white" fill-opacity="0.17"/>
<path d="M619.565 111.917C619.239 112.034 618.903 112.117 618.559 112.165C618.215 112.213 617.87 112.228 617.523 112.206C617.176 112.184 616.834 112.127 616.494 112.035C616.158 111.945 615.829 111.823 615.513 111.667C615.197 111.51 614.898 111.321 614.619 111.106C614.336 110.89 614.076 110.649 613.84 110.382C613.603 110.114 613.395 109.825 613.212 109.516C613.029 109.207 612.877 108.883 612.756 108.545C612.636 108.209 612.548 107.863 612.494 107.508C612.439 107.153 612.417 106.798 612.43 106.441C612.443 106.084 612.491 105.734 612.573 105.386C612.652 105.043 612.763 104.707 612.909 104.386C613.054 104.064 613.231 103.761 613.433 103.479C613.638 103.193 613.866 102.931 614.12 102.694C614.375 102.457 614.651 102.25 614.948 102.069C615.244 101.888 615.556 101.739 615.882 101.622C616.206 101.506 616.541 101.424 616.885 101.376C617.229 101.327 617.574 101.313 617.921 101.334C618.269 101.356 618.611 101.414 618.951 101.505C619.286 101.595 619.615 101.717 619.931 101.874C620.247 102.03 620.546 102.219 620.825 102.434C621.109 102.651 621.368 102.891 621.605 103.159C621.841 103.426 622.049 103.715 622.232 104.024C622.415 104.333 622.567 104.657 622.687 104.992C622.808 105.331 622.896 105.678 622.951 106.033C623.005 106.388 623.028 106.743 623.014 107.1C623.001 107.456 622.953 107.807 622.871 108.154C622.792 108.497 622.681 108.833 622.536 109.154C622.391 109.476 622.214 109.779 622.011 110.061C621.807 110.348 621.579 110.609 621.324 110.846C621.069 111.083 620.793 111.291 620.497 111.472C620.2 111.653 619.889 111.802 619.565 111.917Z" fill="white" fill-opacity="0.17"/>
<mask id="mask0_10_51" style="mask-type:luminance" maskUnits="userSpaceOnUse" x="618" y="122" width="14" height="10">
<path d="M629.407 122.638L631.346 128.056L620.688 131.869L618.75 126.451L629.407 122.638Z" fill="white"/>
</mask>
<g mask="url(#mask0_10_51)">
<path d="M624.251 125.015C621.637 125.949 620.271 128.805 621.023 131.532C624.362 130.487 627.664 129.347 630.92 128.108C629.808 125.453 626.896 124.068 624.251 125.015Z" fill="white" fill-opacity="0.17"/>
</g>
<path d="M560.541 -4.70408C559.523 -7.54932 556.481 -9.05621 553.736 -8.07446C550.992 -7.09271 549.596 -3.99807 550.613 -1.15283C551.631 1.69241 554.674 3.1993 557.418 2.21755C560.156 1.23809 561.558 -1.85884 560.541 -4.70408Z" fill="white" fill-opacity="0.17"/>
<path d="M568.91 18.692C567.893 15.8501 564.85 14.3399 562.106 15.3216C559.361 16.3034 557.966 19.4013 558.983 22.2432C560.001 25.0885 563.044 26.5987 565.789 25.6169C568.527 24.6375 569.925 21.5306 568.91 18.692Z" fill="white" fill-opacity="0.17"/>
<path d="M577.278 42.0847C576.26 39.2395 573.218 37.7326 570.474 38.7143C567.729 39.6961 566.333 42.7907 567.351 45.636C568.369 48.4812 571.411 49.9881 574.156 49.0064C576.894 48.0269 578.294 44.9233 577.278 42.0847Z" fill="white" fill-opacity="0.17"/>
<path d="M585.645 65.4741C584.629 62.6322 581.585 61.122 578.841 62.1038C576.097 63.0855 574.702 66.1835 575.718 69.0254C576.736 71.8706 579.78 73.3808 582.524 72.3991C585.262 71.4196 586.663 68.3194 585.645 65.4741Z" fill="white" fill-opacity="0.17"/>
<path d="M594.014 88.8669C592.996 86.0216 589.954 84.5148 587.209 85.4965C584.465 86.4783 583.069 89.5729 584.087 92.4181C585.104 95.2634 588.147 96.7703 590.891 95.7885C593.629 94.8091 595.032 91.7121 594.014 88.8669Z" fill="white" fill-opacity="0.17"/>
<path d="M602.381 112.256C601.364 109.414 598.321 107.904 595.576 108.886C592.832 109.868 591.437 112.966 592.454 115.808C593.472 118.653 596.515 120.163 599.259 119.181C601.997 118.202 603.399 115.102 602.381 112.256Z" fill="white" fill-opacity="0.17"/>
<path d="M603.945 132.279C602.055 132.955 600.826 134.649 600.563 136.559C603.806 135.98 607.009 135.291 610.183 134.522C608.86 132.438 606.292 131.439 603.945 132.279Z" fill="white" fill-opacity="0.17"/>
<path d="M540.232 2.56109C539.214 -0.284153 536.171 -1.79104 533.427 -0.809292C530.683 0.172456 529.287 3.26709 530.304 6.11234C531.322 8.95758 534.364 10.4645 537.109 9.48272C539.853 8.50097 541.249 5.40633 540.232 2.56109Z" fill="white" fill-opacity="0.17"/>
<path d="M548.601 25.9571C547.584 23.1152 544.541 21.605 541.797 22.5868C539.052 23.5685 537.657 26.6665 538.674 29.5084C539.692 32.3536 542.735 33.8638 545.48 32.8821C548.224 31.9003 549.616 28.7957 548.601 25.9571Z" fill="white" fill-opacity="0.17"/>
<path d="M556.969 49.3499C555.951 46.5046 552.909 44.9978 550.165 45.9795C547.42 46.9613 546.024 50.0559 547.042 52.9011C548.06 55.7464 551.102 57.2533 553.847 56.2715C556.591 55.2898 557.985 52.1885 556.969 49.3499Z" fill="white" fill-opacity="0.17"/>
<path d="M565.336 72.7393C564.32 69.8974 561.276 68.3872 558.532 69.3689C555.788 70.3507 554.393 73.4486 555.409 76.2906C556.427 79.1358 559.471 80.646 562.215 79.6643C564.959 78.6825 566.354 75.5846 565.336 72.7393Z" fill="white" fill-opacity="0.17"/>
<path d="M573.705 96.132C572.687 93.2868 569.645 91.7799 566.9 92.7617C564.156 93.7434 562.76 96.838 563.778 99.6833C564.795 102.529 567.838 104.035 570.582 103.054C573.326 102.072 574.723 98.9773 573.705 96.132Z" fill="white" fill-opacity="0.17"/>
<path d="M582.072 119.522C581.055 116.68 578.012 115.169 575.267 116.151C572.523 117.133 571.128 120.231 572.145 123.073C573.163 125.918 576.206 127.428 578.95 126.446C581.695 125.465 583.09 122.367 582.072 119.522Z" fill="white" fill-opacity="0.17"/>
<path d="M519.929 9.82395C518.911 6.97871 515.866 5.47297 513.121 6.45472C510.38 7.43532 508.981 10.5311 509.999 13.3763C511.016 16.2216 514.062 17.7273 516.803 16.7467C519.547 15.765 520.947 12.6692 519.929 9.82395Z" fill="white" fill-opacity="0.17"/>
<path d="M528.298 33.22C527.282 30.3781 524.235 28.869 521.491 29.8508C518.75 30.8314 517.351 33.9305 518.368 36.7724C519.386 39.6177 522.433 41.1267 525.174 40.1461C527.918 39.1644 529.314 36.0586 528.298 33.22Z" fill="white" fill-opacity="0.17"/>
<path d="M536.667 56.6128C535.649 53.7675 532.603 52.2618 529.859 53.2435C527.118 54.2241 525.719 57.3199 526.736 60.1651C527.754 63.0104 530.8 64.5161 533.541 63.5355C536.285 62.5538 537.682 59.4514 536.667 56.6128Z" fill="white" fill-opacity="0.17"/>
<path d="M545.034 80.0022C544.017 77.1603 540.971 75.6512 538.226 76.633C535.485 77.6136 534.087 80.7127 535.103 83.5546C536.121 86.3998 539.168 87.9089 541.909 86.9283C544.653 85.9465 546.052 82.8474 545.034 80.0022Z" fill="white" fill-opacity="0.17"/>
<path d="M553.402 103.395C552.384 100.55 549.339 99.0439 546.594 100.026C543.853 101.006 542.454 104.102 543.472 106.947C544.49 109.793 547.535 111.298 550.276 110.318C553.021 109.336 554.42 106.24 553.402 103.395Z" fill="white" fill-opacity="0.17"/>
<path d="M561.769 126.784C560.753 123.942 557.706 122.433 554.962 123.415C552.22 124.396 550.822 127.495 551.839 130.337C552.857 133.182 555.903 134.691 558.645 133.71C561.389 132.729 562.787 129.63 561.769 126.784Z" fill="white" fill-opacity="0.17"/>
<path d="M488.127 0.622473C487.803 0.738174 487.468 0.820676 487.124 0.868833C486.78 0.916989 486.435 0.931829 486.088 0.910031C485.74 0.888234 485.398 0.830829 485.06 0.742282C484.72 0.650415 484.394 0.527288 484.078 0.370729C483.762 0.214169 483.464 0.0285251 483.181 -0.188379C482.901 -0.406427 482.641 -0.64692 482.405 -0.914324C482.168 -1.18173 481.96 -1.47055 481.777 -1.77964C481.594 -2.08872 481.442 -2.41259 481.322 -2.74791C481.201 -3.08655 481.113 -3.43333 481.059 -3.78824C481.004 -4.14315 480.983 -4.49509 480.995 -4.85517C481.008 -5.21192 481.056 -5.56239 481.134 -5.90874C481.217 -6.25292 481.33 -6.5852 481.475 -6.90672C481.62 -7.22824 481.795 -7.53454 481.998 -7.81669C482.202 -8.1033 482.432 -8.36129 482.686 -8.59846C482.941 -8.83562 483.216 -9.04634 483.512 -9.2273C483.81 -9.40493 484.122 -9.55384 484.445 -9.66954C484.772 -9.78638 485.107 -9.86889 485.45 -9.92036C485.794 -9.96852 486.137 -9.97889 486.487 -9.95824C486.835 -9.93644 487.176 -9.88236 487.515 -9.79049C487.851 -9.7008 488.178 -9.57435 488.494 -9.41779C488.81 -9.26123 489.111 -9.07674 489.39 -8.86201C489.673 -8.6451 489.93 -8.40346 490.166 -8.13606C490.404 -7.86534 490.614 -7.58098 490.797 -7.27189C490.98 -6.96281 491.128 -6.63779 491.25 -6.29916C491.37 -5.96383 491.461 -5.6182 491.515 -5.26329C491.57 -4.90838 491.589 -4.55197 491.576 -4.19522C491.563 -3.83846 491.518 -3.48914 491.436 -3.14164C491.358 -2.79529 491.242 -2.46187 491.097 -2.14035C490.952 -1.81883 490.779 -1.51699 490.577 -1.23152C490.372 -0.948231 490.144 -0.686916 489.889 -0.449752C489.631 -0.211444 489.358 -0.00518975 489.062 0.175767C488.765 0.356723 488.454 0.505625 488.127 0.622473Z" fill="white" fill-opacity="0.17"/>
<path d="M496.494 24.0119C496.171 24.1276 495.835 24.2101 495.492 24.2616C495.148 24.3097 494.802 24.3212 494.455 24.2995C494.107 24.2777 493.767 24.2236 493.427 24.1317C493.088 24.0432 492.761 23.9167 492.445 23.7601C492.129 23.6036 491.831 23.4179 491.548 23.201C491.269 22.9863 491.008 22.7425 490.772 22.4751C490.535 22.2077 490.327 21.9189 490.145 21.6131C489.963 21.304 489.811 20.9802 489.689 20.6415C489.568 20.3029 489.482 19.9594 489.427 19.6045C489.372 19.2496 489.35 18.8943 489.363 18.5376C489.376 18.1808 489.424 17.8303 489.503 17.484C489.584 17.1365 489.697 16.8042 489.842 16.4827C489.987 16.1612 490.164 15.8582 490.365 15.5727C490.571 15.2894 490.799 15.0281 491.053 14.791C491.308 14.5538 491.584 14.3464 491.881 14.1654C492.177 13.9845 492.489 13.8356 492.812 13.7199C493.139 13.603 493.474 13.5205 493.818 13.4724C494.162 13.4242 494.504 13.4105 494.854 13.4312C495.202 13.453 495.544 13.5104 495.883 13.5989C496.219 13.6919 496.545 13.8151 496.861 13.9716C497.177 14.1282 497.478 14.3127 497.758 14.5307C498.042 14.7476 498.298 14.9893 498.534 15.2567C498.771 15.5241 498.982 15.8118 499.165 16.1208C499.348 16.4299 499.495 16.7516 499.617 17.0903C499.738 17.4289 499.829 17.7745 499.884 18.1294C499.937 18.481 499.956 18.8374 499.943 19.1942C499.93 19.551 499.886 19.9036 499.803 20.2478C499.725 20.5941 499.61 20.9276 499.464 21.2491C499.319 21.5706 499.147 21.8757 498.944 22.1579C498.74 22.4445 498.511 22.7025 498.256 22.9397C497.998 23.178 497.726 23.3876 497.43 23.5685C497.132 23.7461 496.821 23.895 496.494 24.0119Z" fill="white" fill-opacity="0.17"/>
<path d="M504.865 47.4113C504.541 47.527 504.206 47.6095 503.862 47.6576C503.518 47.7058 503.172 47.7173 502.826 47.6988C502.478 47.677 502.136 47.6196 501.796 47.5278C501.458 47.4392 501.131 47.3128 500.815 47.1562C500.5 47.003 500.201 46.814 499.919 46.6004C499.638 46.3824 499.379 46.1419 499.142 45.8745C498.906 45.6071 498.698 45.3183 498.515 45.0092C498.332 44.7001 498.18 44.3762 498.059 44.0376C497.939 43.7023 497.851 43.3555 497.796 43.0006C497.742 42.6457 497.719 42.2904 497.733 41.9336C497.746 41.5769 497.794 41.2264 497.872 40.8801C497.955 40.5359 498.066 40.2003 498.211 39.8788C498.356 39.5573 498.533 39.2543 498.736 38.9721C498.94 38.6855 499.168 38.4242 499.423 38.187C499.678 37.9499 499.954 37.7425 500.25 37.5615C500.547 37.3806 500.858 37.2317 501.182 37.116C501.508 36.9991 501.844 36.9166 502.188 36.8684C502.532 36.8203 502.873 36.8066 503.224 36.8273C503.571 36.849 503.913 36.9065 504.253 36.9983C504.589 37.088 504.915 37.2111 505.231 37.3677C505.547 37.5243 505.849 37.7121 506.128 37.9268C506.411 38.1437 506.667 38.3853 506.904 38.6528C507.141 38.9202 507.352 39.2078 507.535 39.5169C507.717 39.826 507.866 40.151 507.986 40.4863C508.107 40.825 508.198 41.1706 508.253 41.5255C508.308 41.8804 508.327 42.2368 508.314 42.5936C508.3 42.9504 508.256 43.2997 508.174 43.6472C508.095 43.9902 507.98 44.3269 507.834 44.6451C507.689 44.9667 507.516 45.2718 507.314 45.554C507.109 45.8406 506.881 46.1019 506.627 46.3391C506.368 46.574 506.096 46.7836 505.799 46.9646C505.503 47.1455 505.191 47.2944 504.865 47.4113Z" fill="white" fill-opacity="0.17"/>
<path d="M513.232 70.8007C512.908 70.9164 512.573 70.9989 512.229 71.0471C511.885 71.0952 511.54 71.1101 511.193 71.0883C510.845 71.0665 510.503 71.0091 510.165 70.9205C509.825 70.8286 509.499 70.7055 509.183 70.549C508.867 70.3924 508.569 70.2067 508.286 69.9898C508.005 69.7718 507.746 69.5313 507.509 69.2639C507.273 68.9965 507.065 68.7077 506.882 68.3986C506.7 68.0928 506.548 67.769 506.427 67.4303C506.306 67.0917 506.218 66.7449 506.165 66.3933C506.11 66.0384 506.088 65.6831 506.101 65.3264C506.114 64.9696 506.161 64.6158 506.241 64.2728C506.322 63.9253 506.434 63.593 506.579 63.2715C506.724 62.95 506.901 62.647 507.103 62.3615C507.307 62.0749 507.536 61.8169 507.791 61.5798C508.046 61.3426 508.321 61.1319 508.619 60.9542C508.915 60.7733 509.227 60.6244 509.55 60.5087C509.877 60.3918 510.212 60.3093 510.556 60.2612C510.899 60.2097 511.242 60.1993 511.592 60.22C511.94 60.2418 512.28 60.2959 512.62 60.3877C512.957 60.4807 513.283 60.6039 513.599 60.7604C513.915 60.917 514.216 61.1015 514.496 61.3195C514.778 61.5331 515.036 61.7781 515.272 62.0455C515.509 62.3129 515.72 62.6006 515.903 62.9096C516.085 63.2154 516.233 63.5404 516.354 63.8791C516.476 64.2177 516.566 64.56 516.62 64.9149C516.675 65.2698 516.694 65.6262 516.681 65.983C516.668 66.3398 516.623 66.6891 516.541 67.0366C516.463 67.3829 516.347 67.7164 516.202 68.0379C516.057 68.3594 515.883 68.6612 515.682 68.9467C515.476 69.23 515.248 69.4913 514.994 69.7285C514.736 69.9668 514.463 70.173 514.166 70.354C513.87 70.5349 513.558 70.6838 513.232 70.8007Z" fill="white" fill-opacity="0.17"/>
<path d="M521.6 94.1934C521.277 94.3092 520.941 94.3917 520.597 94.4398C520.253 94.488 519.907 94.4995 519.561 94.481C519.214 94.4592 518.872 94.4018 518.532 94.3099C518.193 94.2214 517.867 94.0983 517.551 93.9417C517.235 93.7851 516.936 93.5962 516.654 93.3826C516.374 93.1645 516.114 92.9241 515.878 92.6567C515.641 92.3893 515.433 92.1004 515.25 91.7913C515.068 91.4823 514.916 91.1584 514.794 90.8197C514.674 90.4844 514.587 90.1377 514.532 89.7827C514.477 89.4278 514.455 89.0726 514.468 88.7158C514.481 88.3591 514.529 88.0086 514.608 87.6622C514.69 87.3181 514.802 86.9825 514.947 86.6609C515.092 86.3394 515.269 86.0364 515.471 85.7543C515.676 85.4677 515.904 85.2064 516.158 84.9692C516.413 84.732 516.689 84.5246 516.986 84.3437C517.282 84.1627 517.594 84.0138 517.917 83.8981C518.244 83.7813 518.579 83.6988 518.923 83.6506C519.267 83.6025 519.609 83.5888 519.959 83.6094C520.307 83.6312 520.649 83.6886 520.989 83.7805C521.324 83.8702 521.65 83.9933 521.966 84.1499C522.282 84.3064 522.584 84.4942 522.863 84.709C523.147 84.9259 523.403 85.1675 523.639 85.4349C523.876 85.7023 524.087 85.99 524.27 86.2991C524.453 86.6082 524.602 86.9332 524.722 87.2685C524.843 87.6071 524.934 87.9528 524.989 88.3077C525.043 88.6626 525.062 89.019 525.049 89.3758C525.036 89.7325 524.991 90.0818 524.91 90.4293C524.83 90.7724 524.716 91.1091 524.571 91.4306C524.426 91.7522 524.252 92.054 524.049 92.3361C523.845 92.6227 523.617 92.8841 523.362 93.1212C523.103 93.3562 522.831 93.5658 522.535 93.7467C522.238 93.9277 521.927 94.0766 521.6 94.1934Z" fill="white" fill-opacity="0.17"/>
<path d="M529.967 117.583C529.644 117.699 529.308 117.781 528.964 117.829C528.62 117.877 528.275 117.892 527.928 117.87C527.581 117.849 527.239 117.791 526.9 117.703C526.56 117.611 526.234 117.488 525.918 117.331C525.602 117.175 525.305 116.989 525.021 116.772C524.742 116.557 524.481 116.313 524.245 116.046C524.008 115.779 523.8 115.49 523.617 115.181C523.436 114.875 523.284 114.551 523.163 114.212C523.042 113.874 522.954 113.527 522.9 113.175C522.845 112.821 522.823 112.465 522.836 112.109C522.85 111.752 522.896 111.398 522.976 111.055C523.057 110.707 523.17 110.375 523.315 110.054C523.46 109.732 523.637 109.429 523.838 109.144C524.044 108.86 524.272 108.599 524.527 108.362C524.781 108.125 525.056 107.914 525.354 107.736C525.65 107.555 525.962 107.407 526.285 107.291C526.612 107.174 526.947 107.091 527.291 107.043C527.634 106.992 527.977 106.981 528.328 107.002C528.675 107.024 529.017 107.081 529.356 107.17C529.692 107.263 530.018 107.386 530.334 107.543C530.65 107.699 530.951 107.884 531.231 108.102C531.514 108.315 531.771 108.56 532.008 108.828C532.244 109.095 532.455 109.383 532.638 109.692C532.82 109.998 532.969 110.323 533.09 110.661C533.211 111 533.302 111.345 533.356 111.697C533.41 112.052 533.43 112.408 533.416 112.765C533.403 113.122 533.359 113.475 533.277 113.819C533.198 114.165 533.083 114.499 532.938 114.82C532.793 115.142 532.619 115.443 532.418 115.729C532.212 116.012 531.984 116.273 531.729 116.511C531.471 116.749 531.198 116.955 530.902 117.136C530.605 117.317 530.294 117.466 529.967 117.583Z" fill="white" fill-opacity="0.17"/>
<path d="M534.653 130.68C532.523 131.442 531.225 133.479 531.22 135.687C534.689 136.266 538.164 136.771 541.647 137.218C541.886 136.208 541.845 135.114 541.463 134.048C540.442 131.212 537.397 129.699 534.653 130.68Z" fill="white" fill-opacity="0.17"/>
<path d="M467.824 7.88534C467.498 8.00218 467.162 8.08469 466.818 8.13284C466.478 8.17985 466.132 8.19469 465.785 8.17289C465.438 8.1511 465.093 8.09484 464.757 8.00514C464.417 7.91328 464.091 7.79015 463.775 7.63359C463.459 7.47703 463.162 7.29139 462.878 7.07448C462.595 6.85758 462.338 6.61594 462.102 6.34854C461.865 6.08114 461.654 5.79346 461.475 5.48323C461.292 5.17414 461.14 4.85027 461.02 4.51495C460.899 4.17631 460.811 3.82954 460.756 3.47463C460.698 3.12086 460.68 2.76777 460.692 2.4077C460.705 2.05094 460.75 1.70162 460.832 1.35412C460.915 1.00994 461.027 0.677666 461.172 0.356145C461.317 0.0346241 461.49 -0.27053 461.695 -0.553823C461.897 -0.839291 462.129 -1.09843 462.384 -1.33559C462.638 -1.57276 462.913 -1.78348 463.207 -1.96329C463.504 -2.14092 463.816 -2.28983 464.143 -2.40667C464.469 -2.52352 464.801 -2.60488 465.144 -2.65635C465.488 -2.70451 465.834 -2.71603 466.182 -2.69423C466.529 -2.67244 466.87 -2.61835 467.21 -2.52648C467.548 -2.43794 467.875 -2.31149 468.191 -2.15493C468.508 -1.99837 468.805 -1.81273 469.087 -1.59914C469.368 -1.38109 469.627 -1.1406 469.864 -0.873197C470.101 -0.602474 470.308 -0.316975 470.491 -0.00788599C470.674 0.301203 470.826 0.625068 470.947 0.963708C471.067 1.29903 471.155 1.64581 471.21 2.00072C471.264 2.35563 471.287 2.71089 471.273 3.06765C471.26 3.4244 471.212 3.77487 471.134 4.12122C471.052 4.46872 470.94 4.801 470.795 5.12252C470.65 5.44404 470.476 5.74587 470.271 6.03249C470.066 6.31578 469.838 6.57709 469.583 6.81426C469.328 7.05142 469.052 7.25882 468.756 7.43978C468.459 7.62073 468.151 7.76849 467.824 7.88534Z" fill="white" fill-opacity="0.17"/>
<path d="M476.191 31.2748C475.865 31.3916 475.529 31.4741 475.187 31.5256C474.846 31.5726 474.5 31.5841 474.152 31.5623C473.805 31.5405 473.461 31.4876 473.124 31.3946C472.785 31.306 472.458 31.1796 472.142 31.023C471.826 30.8665 471.529 30.6808 471.245 30.4639C470.963 30.2503 470.706 30.0054 470.469 29.738C470.233 29.4706 470.021 29.1829 469.843 28.876C469.66 28.5669 469.508 28.243 469.387 27.9044C469.266 27.5657 469.179 27.2223 469.124 26.8674C469.066 26.5136 469.047 26.1572 469.06 25.8004C469.074 25.4437 469.119 25.0944 469.2 24.7469C469.282 24.3994 469.394 24.0671 469.539 23.7456C469.684 23.424 469.858 23.1222 470.062 22.8356C470.265 22.5534 470.496 22.291 470.751 22.0538C471.005 21.8167 471.282 21.6093 471.575 21.4295C471.871 21.2485 472.183 21.0996 472.51 20.9827C472.836 20.8659 473.168 20.7845 473.512 20.7364C473.856 20.6882 474.201 20.6734 474.549 20.6952C474.896 20.717 475.238 20.7744 475.577 20.8629C475.917 20.9548 476.242 21.0779 476.558 21.2345C476.875 21.391 477.172 21.5767 477.456 21.7936C477.736 22.0116 477.995 22.2521 478.232 22.5195C478.468 22.7869 478.676 23.0758 478.859 23.3849C479.042 23.6939 479.193 24.0145 479.314 24.3531C479.435 24.6918 479.523 25.0385 479.578 25.3935C479.631 25.745 479.654 26.1003 479.64 26.4571C479.627 26.8138 479.58 27.1676 479.501 27.5106C479.419 27.8581 479.307 28.1904 479.162 28.5119C479.017 28.8335 478.844 29.1386 478.639 29.4219C478.434 29.7085 478.205 29.9665 477.95 30.2037C477.695 30.4408 477.42 30.6516 477.124 30.8325C476.826 31.0102 476.518 31.1579 476.191 31.2748Z" fill="white" fill-opacity="0.17"/>
<path d="M484.562 54.6741C484.235 54.791 483.9 54.8735 483.556 54.9217C483.215 54.9687 482.869 54.9802 482.523 54.9617C482.176 54.9399 481.83 54.8836 481.494 54.7906C481.155 54.7021 480.828 54.5756 480.512 54.4191C480.197 54.2658 479.898 54.0769 479.616 53.8633C479.332 53.6464 479.076 53.4048 478.84 53.1374C478.603 52.8699 478.392 52.5823 478.212 52.272C478.03 51.963 477.878 51.6391 477.756 51.3004C477.636 50.9651 477.548 50.6184 477.494 50.2634C477.436 49.9097 477.417 49.5533 477.43 49.1965C477.443 48.8397 477.488 48.4904 477.57 48.1429C477.652 47.7988 477.763 47.4632 477.909 47.1416C478.054 46.8201 478.227 46.5183 478.433 46.235C478.634 45.9495 478.866 45.6871 479.12 45.4499C479.375 45.2127 479.651 45.0053 479.944 44.8255C480.241 44.6446 480.552 44.4957 480.879 44.3788C481.206 44.262 481.538 44.1806 481.882 44.1325C482.226 44.0843 482.571 44.0695 482.918 44.0913C483.266 44.1131 483.608 44.1705 483.947 44.2623C484.286 44.3509 484.612 44.474 484.928 44.6306C485.244 44.7871 485.543 44.9761 485.825 45.1897C486.105 45.4077 486.365 45.6482 486.601 45.9156C486.838 46.183 487.046 46.4718 487.229 46.7809C487.412 47.09 487.564 47.4139 487.684 47.7492C487.805 48.0878 487.893 48.4346 487.947 48.7895C488.002 49.1444 488.024 49.4997 488.011 49.8565C487.998 50.2132 487.95 50.5637 487.872 50.91C487.789 51.2542 487.678 51.5898 487.531 51.908C487.386 52.2295 487.214 52.5347 487.008 52.818C486.804 53.1046 486.576 53.3659 486.321 53.6031C486.065 53.8369 485.79 54.0476 485.493 54.2286C485.197 54.4095 484.889 54.5573 484.562 54.6741Z" fill="white" fill-opacity="0.17"/>
<path d="M492.929 78.0636C492.602 78.1804 492.267 78.2629 491.923 78.3111C491.582 78.3581 491.237 78.3729 490.89 78.3511C490.543 78.3293 490.197 78.2731 489.862 78.1834C489.522 78.0915 489.196 77.9684 488.88 77.8118C488.564 77.6553 488.267 77.4696 487.983 77.2527C487.7 77.0358 487.443 76.7942 487.207 76.5268C486.97 76.2594 486.759 75.9717 486.579 75.6615C486.398 75.3557 486.246 75.0318 486.125 74.6932C486.004 74.3545 485.916 74.0078 485.862 73.6562C485.804 73.3024 485.785 72.946 485.798 72.5892C485.812 72.2325 485.855 71.8798 485.938 71.5357C486.019 71.1882 486.132 70.8559 486.277 70.5344C486.422 70.2128 486.596 69.911 486.8 69.6244C487.001 69.3389 487.234 69.0798 487.489 68.8426C487.743 68.6055 488.018 68.3947 488.313 68.2183C488.609 68.0373 488.921 67.8884 489.247 67.7715C489.574 67.6547 489.906 67.5733 490.25 67.5252C490.593 67.4737 490.939 67.4622 491.286 67.484C491.634 67.5058 491.975 67.5599 492.315 67.6517C492.654 67.7436 492.98 67.8667 493.296 68.0233C493.612 68.1799 493.91 68.3655 494.193 68.5824C494.473 68.7971 494.733 69.0409 494.97 69.3083C495.206 69.5757 495.414 69.8646 495.597 70.1737C495.779 70.4794 495.931 70.8033 496.052 71.1419C496.173 71.4806 496.26 71.824 496.314 72.1789C496.369 72.5339 496.391 72.8891 496.378 73.2459C496.365 73.6026 496.317 73.9531 496.239 74.2994C496.157 74.6469 496.045 74.9792 495.9 75.3007C495.755 75.6223 495.581 75.9241 495.376 76.2107C495.171 76.494 494.943 76.7553 494.688 76.9925C494.433 77.2296 494.157 77.437 493.861 77.618C493.564 77.799 493.256 77.9467 492.929 78.0636Z" fill="white" fill-opacity="0.17"/>
<path d="M501.297 101.456C500.971 101.573 500.635 101.656 500.292 101.704C499.951 101.751 499.604 101.762 499.258 101.744C498.911 101.722 498.566 101.666 498.229 101.573C497.89 101.484 497.565 101.361 497.249 101.205C496.932 101.048 496.634 100.859 496.351 100.645C496.068 100.429 495.812 100.187 495.575 99.9195C495.339 99.6521 495.127 99.3644 494.948 99.0542C494.765 98.7451 494.613 98.4213 494.492 98.0826C494.372 97.7473 494.284 97.4005 494.229 97.0456C494.171 96.6918 494.152 96.3354 494.165 95.9787C494.179 95.6219 494.223 95.2726 494.305 94.9251C494.388 94.5809 494.499 94.2453 494.644 93.9238C494.789 93.6023 494.963 93.3004 495.168 93.0172C495.37 92.7317 495.601 92.4692 495.856 92.2321C496.11 91.9949 496.387 91.7875 496.68 91.6077C496.976 91.4267 497.288 91.2778 497.614 91.161C497.941 91.0441 498.273 90.9628 498.617 90.9146C498.961 90.8665 499.306 90.8516 499.654 90.8734C500.001 90.8952 500.343 90.9526 500.683 91.0445C501.022 91.133 501.347 91.2562 501.663 91.4127C501.979 91.5693 502.278 91.7583 502.561 91.9718C502.841 92.1899 503.1 92.4304 503.337 92.6978C503.573 92.9652 503.781 93.254 503.964 93.5631C504.147 93.8722 504.299 94.196 504.419 94.5314C504.54 94.87 504.628 95.2168 504.683 95.5717C504.737 95.9266 504.76 96.2819 504.747 96.6386C504.733 96.9954 504.685 97.3458 504.607 97.6922C504.524 98.0364 504.413 98.372 504.268 98.6935C504.123 99.015 503.949 99.3168 503.743 99.6001C503.539 99.8868 503.311 100.148 503.056 100.385C502.8 100.619 502.525 100.83 502.229 101.011C501.932 101.192 501.624 101.339 501.297 101.456Z" fill="white" fill-opacity="0.17"/>
<path d="M509.665 124.846C509.338 124.963 509.003 125.045 508.659 125.093C508.318 125.14 507.973 125.155 507.625 125.133C507.278 125.111 506.933 125.055 506.597 124.966C506.257 124.874 505.932 124.751 505.616 124.594C505.3 124.437 505.002 124.252 504.718 124.035C504.436 123.821 504.179 123.576 503.942 123.309C503.706 123.042 503.494 122.754 503.315 122.444C503.133 122.138 502.981 121.814 502.86 121.475C502.739 121.137 502.651 120.79 502.597 120.438C502.54 120.085 502.52 119.728 502.534 119.371C502.547 119.015 502.591 118.662 502.673 118.318C502.755 117.97 502.867 117.638 503.012 117.317C503.157 116.995 503.331 116.693 503.536 116.407C503.738 116.124 503.969 115.862 504.224 115.625C504.479 115.388 504.754 115.177 505.048 115C505.345 114.819 505.656 114.671 505.983 114.554C506.309 114.437 506.642 114.356 506.986 114.307C507.328 114.256 507.675 114.244 508.022 114.266C508.369 114.288 508.711 114.345 509.05 114.434C509.39 114.526 509.716 114.649 510.032 114.805C510.348 114.962 510.645 115.148 510.929 115.365C511.208 115.579 511.469 115.823 511.705 116.091C511.942 116.358 512.15 116.647 512.332 116.956C512.514 117.262 512.666 117.585 512.787 117.924C512.908 118.263 512.996 118.61 513.05 118.961C513.105 119.316 513.127 119.671 513.114 120.028C513.1 120.385 513.054 120.739 512.974 121.082C512.892 121.429 512.78 121.761 512.635 122.083C512.49 122.404 512.316 122.706 512.112 122.993C511.906 123.276 511.678 123.537 511.423 123.775C511.169 124.012 510.892 124.219 510.596 124.4C510.3 124.581 509.991 124.729 509.665 124.846Z" fill="white" fill-opacity="0.17"/>
<path d="M450.641 8.22772C449.623 5.38247 446.581 3.87559 443.837 4.85733C441.095 5.83794 439.696 8.93372 440.714 11.779C441.731 14.6209 444.777 16.1299 447.518 15.1493C450.256 14.1699 451.658 11.0696 450.641 8.22772Z" fill="white" fill-opacity="0.17"/>
<path d="M459.008 31.6172C457.99 28.7719 454.948 27.265 452.204 28.2468C449.463 29.2274 448.063 32.3232 449.081 35.1684C450.099 38.0136 453.144 39.5194 455.886 38.5388C458.624 37.5593 460.026 34.4624 459.008 31.6172Z" fill="white" fill-opacity="0.17"/>
<path d="M467.378 55.0132C466.361 52.1713 463.318 50.6611 460.573 51.6428C457.832 52.6234 456.434 55.7225 457.451 58.5645C458.468 61.4097 461.515 62.9188 464.256 61.9382C466.994 60.9587 468.393 57.8518 467.378 55.0132Z" fill="white" fill-opacity="0.17"/>
<path d="M475.746 78.406C474.728 75.5607 471.686 74.0538 468.942 75.0356C466.2 76.0162 464.801 79.112 465.819 81.9572C466.837 84.8024 469.882 86.3082 472.623 85.3276C475.361 84.3481 476.761 81.2446 475.746 78.406Z" fill="white" fill-opacity="0.17"/>
<path d="M484.113 101.795C483.096 98.9535 480.053 97.4433 477.309 98.425C474.567 99.4056 473.169 102.505 474.186 105.347C475.204 108.192 478.25 109.701 480.992 108.72C483.73 107.741 485.131 104.641 484.113 101.795Z" fill="white" fill-opacity="0.17"/>
<path d="M485.677 121.818C484.252 122.328 483.203 123.414 482.655 124.741C486.034 125.622 489.424 126.495 492.806 127.357C492.84 126.644 492.739 125.909 492.484 125.195C491.464 122.343 488.415 120.838 485.677 121.818Z" fill="white" fill-opacity="0.17"/>
<path d="M421.964 -7.89982C420.946 -10.7451 417.904 -12.2519 415.159 -11.2702C412.418 -10.2896 411.019 -7.19381 412.037 -4.34857C413.054 -1.50333 416.1 0.00241254 418.841 -0.97819C421.585 -1.95994 422.982 -5.05457 421.964 -7.89982Z" fill="white" fill-opacity="0.17"/>
<path d="M430.332 15.4929C429.314 12.6476 426.272 11.1408 423.528 12.1225C420.786 13.1031 419.387 16.1989 420.405 19.0441C421.422 21.8861 424.468 23.3951 427.209 22.4145C429.954 21.4328 431.349 18.3348 430.332 15.4929Z" fill="white" fill-opacity="0.17"/>
<path d="M438.699 38.8823C437.681 36.0371 434.639 34.5302 431.895 35.5119C429.154 36.4925 427.754 39.5883 428.772 42.4335C429.79 45.2788 432.835 46.7845 435.577 45.8039C438.321 44.8222 439.717 41.7275 438.699 38.8823Z" fill="white" fill-opacity="0.17"/>
<path d="M447.069 62.2784C446.052 59.4365 443.009 57.9262 440.264 58.908C437.523 59.8886 436.125 62.9877 437.142 65.8296C438.159 68.6749 441.206 70.1839 443.947 69.2033C446.692 68.2216 448.084 65.117 447.069 62.2784Z" fill="white" fill-opacity="0.17"/>
<path d="M455.437 85.6711C454.419 82.8259 451.377 81.319 448.632 82.3007C445.891 83.2813 444.492 86.3771 445.51 89.2224C446.528 92.0676 449.573 93.5733 452.314 92.5927C455.059 91.611 456.452 88.5097 455.437 85.6711Z" fill="white" fill-opacity="0.17"/>
<path d="M463.804 109.061C462.787 106.219 459.744 104.708 457 105.69C454.258 106.671 452.86 109.77 453.877 112.612C454.895 115.457 457.941 116.966 460.683 115.985C463.427 115.004 464.822 111.906 463.804 109.061Z" fill="white" fill-opacity="0.17"/>
<path d="M401.661 -0.636954C400.643 -3.4822 397.601 -4.98908 394.857 -4.00734C392.112 -3.02559 390.716 0.0690485 391.734 2.91429C392.752 5.75953 395.794 7.26642 398.538 6.28467C401.276 5.30522 402.679 2.20829 401.661 -0.636954Z" fill="white" fill-opacity="0.17"/>
<path d="M410.029 22.7558C409.012 19.9105 405.969 18.4036 403.225 19.3854C400.481 20.3671 399.084 23.4618 400.102 26.307C401.119 29.1489 404.162 30.6591 406.907 29.6774C409.645 28.6979 411.046 25.5977 410.029 22.7558Z" fill="white" fill-opacity="0.17"/>
<path d="M418.397 46.1452C417.379 43.2999 414.336 41.7931 411.592 42.7748C408.848 43.7565 407.452 46.8512 408.469 49.6964C409.487 52.5417 412.529 54.0486 415.274 53.0668C418.012 52.0874 419.414 48.9904 418.397 46.1452Z" fill="white" fill-opacity="0.17"/>
<path d="M426.766 69.5413C425.749 66.6993 422.706 65.1891 419.962 66.1709C417.217 67.1526 415.822 70.2506 416.839 73.0925C417.857 75.9377 420.9 77.4479 423.645 76.4662C426.383 75.4867 427.782 72.3799 426.766 69.5413Z" fill="white" fill-opacity="0.17"/>
<path d="M435.134 92.934C434.117 90.0887 431.074 88.5819 428.33 89.5636C425.586 90.5453 424.189 93.64 425.207 96.4852C426.225 99.3305 429.267 100.837 432.012 99.8556C434.75 98.8762 436.15 95.7726 435.134 92.934Z" fill="white" fill-opacity="0.17"/>
<path d="M436.697 112.953C436.588 112.992 436.499 113.057 436.392 113.1C438.4 113.542 440.402 114.002 442.405 114.469C440.983 112.888 438.756 112.216 436.697 112.953Z" fill="white" fill-opacity="0.17"/>
<path d="M381.352 6.62821C380.334 3.78297 377.289 2.27723 374.548 3.25783C371.803 4.23958 370.407 7.33422 371.425 10.1795C372.443 13.0247 375.485 14.5316 378.229 13.5498C380.971 12.5692 382.37 9.47346 381.352 6.62821Z" fill="white" fill-opacity="0.17"/>
<path d="M389.72 30.0209C388.703 27.1757 385.657 25.6699 382.916 26.6505C380.172 27.6323 378.775 30.7269 379.793 33.5722C380.81 36.4141 383.853 37.9243 386.598 36.9426C389.339 35.962 390.737 32.8629 389.72 30.0209Z" fill="white" fill-opacity="0.17"/>
<path d="M398.087 53.4103C397.07 50.5651 394.024 49.0594 391.283 50.04C388.539 51.0217 387.143 54.1164 388.16 56.9616C389.178 59.8068 392.22 61.3137 394.965 60.332C397.706 59.3514 399.105 56.2556 398.087 53.4103Z" fill="white" fill-opacity="0.17"/>
<path d="M406.457 76.8064C405.44 73.9645 402.394 72.4554 399.653 73.436C396.908 74.4178 395.513 77.5157 396.53 80.3577C397.548 83.2029 400.591 84.7131 403.335 83.7314C406.077 82.7508 407.472 79.645 406.457 76.8064Z" fill="white" fill-opacity="0.17"/>
<path d="M414.825 100.199C413.807 97.3539 410.762 95.8482 408.021 96.8288C405.276 97.8105 403.88 100.905 404.898 103.75C405.916 106.596 408.958 108.103 411.703 107.121C414.444 106.14 415.841 103.038 414.825 100.199Z" fill="white" fill-opacity="0.17"/>
<path d="M357.924 20.8138C357.597 20.9307 357.265 21.0121 356.922 21.0635C356.578 21.1117 356.232 21.1232 355.884 21.1014C355.537 21.0796 355.196 21.0255 354.856 20.9337C354.517 20.8418 354.191 20.7187 353.875 20.5621C353.559 20.4055 353.261 20.2199 352.978 20.003C352.698 19.7883 352.438 19.5445 352.201 19.2771C351.965 19.0096 351.757 18.7208 351.575 18.4151C351.392 18.106 351.24 17.7821 351.119 17.4435C350.998 17.1048 350.911 16.7614 350.857 16.4065C350.802 16.0515 350.779 15.6963 350.793 15.3395C350.806 14.9828 350.854 14.6323 350.932 14.286C351.014 13.9385 351.126 13.6062 351.271 13.2847C351.416 12.9631 351.59 12.6613 351.795 12.3747C352 12.0914 352.228 11.8301 352.483 11.5929C352.738 11.3558 353.014 11.1484 353.31 10.9674C353.607 10.7864 353.915 10.6387 354.242 10.5218C354.568 10.405 354.904 10.3225 355.248 10.2743C355.589 10.2273 355.934 10.2125 356.281 10.2343C356.628 10.2561 356.974 10.3123 357.309 10.402C357.649 10.4939 357.975 10.617 358.291 10.7736C358.607 10.9301 358.908 11.1146 359.188 11.3327C359.471 11.5496 359.728 11.7912 359.964 12.0586C360.201 12.326 360.412 12.6137 360.595 12.9228C360.774 13.233 360.925 13.5536 361.046 13.8922C361.167 14.2309 361.255 14.5776 361.313 14.9314C361.367 15.283 361.386 15.6394 361.373 15.9962C361.359 16.3529 361.316 16.7056 361.233 17.0497C361.155 17.3961 361.039 17.7295 360.894 18.051C360.749 18.3726 360.575 18.6744 360.371 18.961C360.17 19.2465 359.937 19.5056 359.682 19.7428C359.428 19.9799 359.153 20.1907 358.858 20.3671C358.562 20.5481 358.25 20.697 357.924 20.8138Z" fill="white" fill-opacity="0.17"/>
<path d="M366.292 44.2066C365.965 44.3234 365.633 44.4048 365.289 44.4529C364.945 44.5011 364.6 44.5159 364.253 44.4941C363.905 44.4723 363.563 44.4149 363.225 44.3264C362.885 44.2345 362.559 44.1114 362.243 43.9548C361.927 43.7983 361.629 43.6126 361.346 43.3957C361.066 43.1777 360.806 42.9372 360.57 42.6698C360.333 42.4024 360.125 42.1135 359.942 41.8045C359.759 41.4954 359.607 41.1715 359.487 40.8362C359.366 40.4975 359.278 40.1508 359.224 39.7959C359.169 39.4409 359.148 39.089 359.16 38.7289C359.173 38.3722 359.221 38.0217 359.299 37.6753C359.382 37.3312 359.495 36.9989 359.64 36.6774C359.785 36.3559 359.957 36.0507 360.163 35.7674C360.367 35.4808 360.597 35.2228 360.851 34.9856C361.106 34.7485 361.381 34.5378 361.677 34.3568C361.975 34.1792 362.283 34.0314 362.61 33.9146C362.937 33.7977 363.272 33.7152 363.615 33.6637C363.956 33.6167 364.302 33.6052 364.649 33.627C364.997 33.6488 365.341 33.7017 365.677 33.7947C366.016 33.8833 366.343 34.0097 366.659 34.1663C366.975 34.3229 367.276 34.5074 367.555 34.7221C367.838 34.939 368.095 35.1806 368.331 35.448C368.569 35.7188 368.779 36.0031 368.962 36.3122C369.141 36.6224 369.293 36.9463 369.415 37.2849C369.535 37.6203 369.622 37.967 369.68 38.3208C369.735 38.6757 369.754 39.0321 369.741 39.3889C369.728 39.7456 369.683 40.095 369.601 40.4425C369.523 40.7888 369.407 41.1222 369.262 41.4437C369.117 41.7653 368.944 42.0671 368.739 42.3537C368.537 42.6359 368.305 42.8983 368.051 43.1355C367.796 43.3726 367.52 43.58 367.227 43.7599C366.93 43.9408 366.619 44.0897 366.292 44.2066Z" fill="white" fill-opacity="0.17"/>
<path d="M374.659 67.596C374.332 67.7128 374 67.7942 373.657 67.8457C373.313 67.8938 372.967 67.9053 372.62 67.8835C372.273 67.8617 371.932 67.8077 371.592 67.7158C371.253 67.6272 370.926 67.5008 370.61 67.3442C370.294 67.1877 369.996 67.002 369.713 66.7851C369.434 66.5704 369.173 66.3266 368.937 66.0592C368.7 65.7918 368.492 65.503 368.31 65.1972C368.128 64.8881 367.976 64.5642 367.855 64.2256C367.733 63.887 367.647 63.5435 367.592 63.1886C367.537 62.8337 367.515 62.4784 367.528 62.1217C367.541 61.7649 367.589 61.4144 367.668 61.0681C367.749 60.7206 367.862 60.3883 368.007 60.0668C368.152 59.7453 368.326 59.4434 368.53 59.1568C368.736 58.8735 368.964 58.6122 369.218 58.3751C369.473 58.1379 369.749 57.9305 370.046 57.7495C370.342 57.5686 370.651 57.4208 370.977 57.304C371.304 57.1871 371.639 57.1046 371.983 57.0565C372.324 57.0095 372.669 56.9946 373.016 57.0164C373.364 57.0382 373.709 57.0945 374.044 57.1842C374.384 57.276 374.71 57.3992 375.026 57.5557C375.342 57.7123 375.643 57.8968 375.923 58.1148C376.207 58.3317 376.463 58.5734 376.7 58.8408C376.936 59.1082 377.147 59.3958 377.33 59.7049C377.51 60.0152 377.661 60.3357 377.782 60.6744C377.903 61.013 377.991 61.3598 378.049 61.7135C378.102 62.0651 378.121 62.4215 378.108 62.7783C378.095 63.1351 378.051 63.4877 377.968 63.8319C377.89 64.1782 377.775 64.5116 377.63 64.8332C377.484 65.1547 377.312 65.4598 377.106 65.7431C376.905 66.0286 376.673 66.2877 376.418 66.5249C376.163 66.7621 375.888 66.9728 375.595 67.1526C375.297 67.3302 374.986 67.4791 374.659 67.596Z" fill="white" fill-opacity="0.17"/>
<path d="M383.03 90.9954C382.703 91.1122 382.371 91.1936 382.027 91.2417C381.683 91.2899 381.337 91.3014 380.991 91.2829C380.643 91.2611 380.301 91.2037 379.961 91.1119C379.623 91.0233 379.296 90.8969 378.98 90.7403C378.665 90.5871 378.366 90.3981 378.084 90.1845C377.803 89.9665 377.544 89.726 377.307 89.4586C377.071 89.1912 376.863 88.9024 376.68 88.5933C376.497 88.2842 376.345 87.9603 376.224 87.6217C376.104 87.2864 376.016 86.9396 375.961 86.5847C375.907 86.2298 375.884 85.8745 375.898 85.5177C375.911 85.161 375.959 84.8105 376.037 84.4642C376.12 84.12 376.231 83.7844 376.376 83.4629C376.521 83.1413 376.695 82.8395 376.901 82.5562C377.105 82.2696 377.333 82.0083 377.588 81.7711C377.843 81.534 378.119 81.3266 378.415 81.1456C378.712 80.9646 379.02 80.8169 379.347 80.7C379.673 80.5832 380.009 80.5007 380.353 80.4525C380.693 80.4055 381.039 80.3907 381.386 80.4125C381.733 80.4343 382.078 80.4905 382.415 80.5836C382.754 80.6721 383.08 80.7952 383.396 80.9518C383.712 81.1083 384.014 81.2962 384.293 81.5109C384.576 81.7278 384.832 81.9694 385.069 82.2368C385.306 82.5042 385.517 82.7919 385.7 83.101C385.879 83.4112 386.031 83.7351 386.151 84.0704C386.272 84.4091 386.36 84.7558 386.418 85.1096C386.473 85.4645 386.492 85.8209 386.479 86.1777C386.466 86.5344 386.421 86.8838 386.339 87.2313C386.26 87.5743 386.145 87.911 385.999 88.2292C385.854 88.5508 385.681 88.8559 385.476 89.1392C385.274 89.4247 385.043 89.6871 384.789 89.9243C384.533 90.1581 384.258 90.3689 383.964 90.5487C383.668 90.7296 383.356 90.8785 383.03 90.9954Z" fill="white" fill-opacity="0.17"/>
<path d="M387.715 104.093C386.674 104.465 385.827 105.146 385.235 105.995C388.177 106.092 391.122 106.256 394.059 106.478C392.758 104.285 390.117 103.234 387.715 104.093Z" fill="white" fill-opacity="0.17"/>
<path d="M332.37 -2.23208C331.352 -5.07732 328.31 -6.58421 325.566 -5.60246C322.821 -4.62071 321.425 -1.52607 322.443 1.31917C323.46 4.16109 326.503 5.6713 329.247 4.68955C331.992 3.7078 333.386 0.606525 332.37 -2.23208Z" fill="white" fill-opacity="0.17"/>
<path d="M340.737 21.1574C339.719 18.3121 336.677 16.8053 333.933 17.787C331.188 18.7688 329.792 21.8634 330.81 24.7086C331.828 27.5539 334.87 29.0608 337.615 28.079C340.359 27.0973 341.755 24.0026 340.737 21.1574Z" fill="white" fill-opacity="0.17"/>
<path d="M349.106 44.5501C348.088 41.7048 345.045 40.198 342.301 41.1797C339.557 42.1615 338.161 45.2561 339.178 48.1013C340.195 50.9433 343.238 52.4535 345.983 51.4717C348.727 50.49 350.122 47.392 349.106 44.5501Z" fill="white" fill-opacity="0.17"/>
<path d="M357.473 67.9395C356.455 65.0943 353.413 63.5874 350.668 64.5691C347.924 65.5509 346.528 68.6455 347.546 71.4908C348.563 74.336 351.606 75.8429 354.35 74.8612C357.094 73.8794 358.49 70.7848 357.473 67.9395Z" fill="white" fill-opacity="0.17"/>
<path d="M365.842 91.3356C364.826 88.4937 361.782 86.9835 359.038 87.9652C356.293 88.9469 354.898 92.0449 355.915 94.8868C356.933 97.7321 359.976 99.2423 362.721 98.2605C365.465 97.2788 366.858 94.1742 365.842 91.3356Z" fill="white" fill-opacity="0.17"/>
<path d="M312.068 5.0308C311.05 2.18556 308.004 0.679817 305.263 1.66042C302.519 2.64217 301.119 5.73795 302.137 8.58319C303.154 11.4251 306.2 12.9342 308.945 11.9524C311.683 10.973 313.083 7.8694 312.068 5.0308Z" fill="white" fill-opacity="0.17"/>
<path d="M320.435 28.4203C319.417 25.575 316.371 24.0693 313.63 25.0499C310.886 26.0316 309.486 29.1274 310.504 31.9727C311.522 34.8179 314.568 36.3236 317.312 35.3419C320.05 34.3624 321.452 31.2655 320.435 28.4203Z" fill="white" fill-opacity="0.17"/>
<path d="M328.803 51.813C327.785 48.9677 324.74 47.462 321.998 48.4426C319.254 49.4243 317.855 52.5201 318.873 55.3654C319.889 58.2073 322.936 59.7163 325.68 58.7346C328.418 57.7551 329.82 54.6549 328.803 51.813Z" fill="white" fill-opacity="0.17"/>
<path d="M337.17 75.2024C336.152 72.3571 333.107 70.8514 330.366 71.832C327.621 72.8138 326.222 75.9095 327.24 78.7548C328.257 81.6 331.303 83.1058 334.047 82.124C336.785 81.1446 338.188 78.0476 337.17 75.2024Z" fill="white" fill-opacity="0.17"/>
<path d="M345.54 98.5985C344.523 95.7565 341.476 94.2475 338.735 95.2281C335.991 96.2098 334.593 99.3089 335.609 102.151C336.627 104.996 339.674 106.505 342.418 105.523C345.156 104.544 346.555 101.437 345.54 98.5985Z" fill="white" fill-opacity="0.17"/>
<path d="M291.758 12.296C290.741 9.45073 287.695 7.94498 284.951 8.92673C282.21 9.90733 280.81 13.0031 281.828 15.8484C282.845 18.6903 285.891 20.1993 288.633 19.2187C291.377 18.237 292.774 15.1346 291.758 12.296Z" fill="white" fill-opacity="0.17"/>
<path d="M300.126 35.6854C299.108 32.8402 296.062 31.3344 293.318 32.3162C290.577 33.2968 289.177 36.3926 290.195 39.2378C291.213 42.0831 294.259 43.5888 297 42.6082C299.744 41.6264 301.143 38.5307 300.126 35.6854Z" fill="white" fill-opacity="0.17"/>
<path d="M308.494 59.0781C307.476 56.2329 304.431 54.7271 301.686 55.7089C298.945 56.6895 297.546 59.7853 298.564 62.6305C299.58 65.4724 302.627 66.9815 305.368 66.0009C308.112 65.0191 309.511 61.92 308.494 59.0781Z" fill="white" fill-opacity="0.17"/>
<path d="M316.861 82.4676C315.843 79.6223 312.798 78.1166 310.053 79.0983C307.312 80.0789 305.913 83.1747 306.931 86.0199C307.948 88.8652 310.994 90.3709 313.735 89.3903C316.479 88.4086 317.879 85.3128 316.861 82.4676Z" fill="white" fill-opacity="0.17"/>
<path d="M325.231 105.864C324.214 103.022 321.167 101.513 318.423 102.494C315.682 103.475 314.284 106.574 315.3 109.416C316.318 112.261 319.365 113.77 322.106 112.79C324.85 111.808 326.246 108.702 325.231 105.864Z" fill="white" fill-opacity="0.17"/>
<path d="M263.084 -3.83274C262.066 -6.67798 259.024 -8.18487 256.28 -7.20312C253.535 -6.22137 252.139 -3.12674 253.157 -0.281494C254.175 2.56375 257.217 4.07064 259.962 3.08889C262.706 2.10714 264.1 -0.994138 263.084 -3.83274Z" fill="white" fill-opacity="0.17"/>
<path d="M271.453 19.56C270.435 16.7147 267.393 15.2079 264.648 16.1896C261.904 17.1714 260.508 20.266 261.525 23.1112C262.542 25.9532 265.586 27.4634 268.33 26.4816C271.074 25.4999 272.468 22.3986 271.453 19.56Z" fill="white" fill-opacity="0.17"/>
<path d="M279.82 42.9494C278.802 40.1042 275.76 38.5973 273.015 39.5791C270.271 40.5608 268.875 43.6554 269.893 46.5007C270.91 49.3459 273.953 50.8528 276.697 49.8711C279.441 48.8893 280.838 45.7947 279.82 42.9494Z" fill="white" fill-opacity="0.17"/>
<path d="M288.188 66.3422C287.17 63.4969 284.128 61.99 281.384 62.9718C278.639 63.9535 277.243 67.0482 278.261 69.8934C279.278 72.7353 282.321 74.2455 285.065 73.2638C287.81 72.282 289.205 69.1841 288.188 66.3422Z" fill="white" fill-opacity="0.17"/>
<path d="M296.555 89.7316C295.537 86.8863 292.495 85.3794 289.751 86.3612C287.006 87.3429 285.61 90.4376 286.628 93.2828C287.646 96.1281 290.688 97.635 293.432 96.6532C296.177 95.6715 297.573 92.5768 296.555 89.7316Z" fill="white" fill-opacity="0.17"/>
<path d="M304.925 113.128C303.908 110.286 300.865 108.776 298.12 109.757C295.376 110.739 293.981 113.837 294.997 116.679C295.674 118.571 297.26 119.854 299.054 120.223C300.518 119.842 301.98 119.457 303.446 119.072C305.041 117.662 305.708 115.319 304.925 113.128Z" fill="white" fill-opacity="0.17"/>
<path d="M239.653 10.354C239.326 10.4709 238.991 10.5534 238.647 10.6015C238.307 10.6519 237.961 10.6634 237.613 10.6416C237.266 10.6198 236.922 10.5669 236.585 10.4738C236.246 10.382 235.92 10.2589 235.604 10.1023C235.288 9.94574 234.99 9.76009 234.707 9.54319C234.424 9.32961 234.167 9.08465 233.93 8.81724C233.694 8.54984 233.483 8.26217 233.304 7.95525C233.121 7.64616 232.969 7.3223 232.848 6.98366C232.727 6.64502 232.64 6.30156 232.586 5.94665C232.528 5.59288 232.508 5.23648 232.522 4.87972C232.535 4.52296 232.58 4.17364 232.661 3.82614C232.743 3.47865 232.855 3.14637 233 2.82485C233.145 2.50333 233.319 2.20149 233.524 1.91488C233.726 1.63273 233.957 1.37027 234.212 1.13311C234.467 0.895946 234.743 0.688547 235.036 0.508736C235.333 0.32778 235.644 0.178878 235.971 0.0620304C236.297 -0.0548172 236.63 -0.136173 236.974 -0.18433C237.318 -0.232486 237.663 -0.247325 238.01 -0.225528C238.357 -0.203731 238.699 -0.146326 239.038 -0.0577787C239.378 0.0340893 239.704 0.157215 240.02 0.313775C240.336 0.470334 240.633 0.655978 240.917 0.872882C241.197 1.09093 241.457 1.33142 241.693 1.59883C241.93 1.86623 242.138 2.15505 242.321 2.46414C242.503 2.77323 242.654 3.09377 242.775 3.43241C242.896 3.77105 242.984 4.11783 243.039 4.47274C243.093 4.82433 243.115 5.17959 243.102 5.53635C243.088 5.89311 243.042 6.2469 242.962 6.58993C242.88 6.93742 242.768 7.2697 242.623 7.59122C242.478 7.91274 242.304 8.21458 242.1 8.50119C241.895 8.7878 241.666 9.0458 241.411 9.28296C241.157 9.52012 240.882 9.73084 240.584 9.90848C240.288 10.0894 239.979 10.2372 239.653 10.354Z" fill="white" fill-opacity="0.17"/>
<path d="M248.021 33.7468C247.694 33.8636 247.359 33.9461 247.015 33.9943C246.674 34.0413 246.329 34.0561 245.982 34.0343C245.634 34.0125 245.289 33.9563 244.954 33.8666C244.614 33.7747 244.288 33.6516 243.972 33.495C243.656 33.3385 243.357 33.1495 243.075 32.9359C242.791 32.719 242.535 32.4774 242.299 32.21C242.062 31.9426 241.851 31.6549 241.671 31.3447C241.488 31.0356 241.336 30.7117 241.216 30.3764C241.095 30.0377 241.007 29.691 240.953 29.3361C240.895 28.9823 240.876 28.6259 240.889 28.2691C240.902 27.9124 240.947 27.5631 241.028 27.2156C241.111 26.8714 241.224 26.5391 241.369 26.2176C241.514 25.8961 241.686 25.5909 241.892 25.3076C242.093 25.0221 242.324 24.7597 242.58 24.5258C242.835 24.2887 243.11 24.078 243.403 23.8981C243.7 23.7172 244.012 23.5716 244.339 23.4548C244.666 23.3379 244.997 23.2532 245.341 23.2051C245.685 23.1569 246.031 23.1454 246.378 23.1672C246.724 23.1857 247.066 23.2431 247.406 23.335C247.745 23.4235 248.072 23.5499 248.388 23.7065C248.704 23.8631 249.002 24.0487 249.284 24.2623C249.564 24.4803 249.824 24.7208 250.06 24.9882C250.297 25.2556 250.505 25.5445 250.688 25.8535C250.87 26.1626 251.022 26.4865 251.144 26.8251C251.264 27.1605 251.351 27.5072 251.406 27.8622C251.461 28.2171 251.483 28.5723 251.47 28.9291C251.457 29.2858 251.409 29.6363 251.33 29.9827C251.248 30.3268 251.136 30.6624 250.991 30.984C250.846 31.3055 250.673 31.6073 250.468 31.8939C250.262 32.1772 250.034 32.4385 249.78 32.6757C249.525 32.9129 249.249 33.1203 248.952 33.3012C248.656 33.4822 248.348 33.6299 248.021 33.7468Z" fill="white" fill-opacity="0.17"/>
<path d="M256.388 57.1362C256.061 57.2531 255.726 57.3356 255.383 57.3871C255.042 57.4341 254.696 57.4456 254.349 57.4238C254.002 57.402 253.658 57.3491 253.321 57.256C252.981 57.1642 252.655 57.0411 252.339 56.8845C252.023 56.7279 251.725 56.5423 251.442 56.3254C251.16 56.1118 250.902 55.8668 250.666 55.5994C250.429 55.332 250.218 55.0444 250.039 54.7374C249.857 54.4284 249.705 54.1045 249.584 53.7659C249.462 53.4272 249.376 53.0838 249.321 52.7288C249.263 52.3751 249.244 52.0187 249.257 51.6619C249.27 51.3052 249.315 50.9558 249.397 50.6083C249.478 50.2608 249.591 49.9286 249.736 49.607C249.881 49.2855 250.055 48.9837 250.259 48.6971C250.462 48.4149 250.693 48.1525 250.947 47.9153C251.202 47.6781 251.478 47.4707 251.772 47.2909C252.068 47.11 252.38 46.9611 252.706 46.8442C253.033 46.7274 253.365 46.646 253.709 46.5979C254.053 46.5497 254.398 46.5349 254.745 46.5567C255.093 46.5785 255.435 46.6359 255.773 46.7244C256.113 46.8163 256.439 46.9394 256.755 47.096C257.071 47.2525 257.369 47.4382 257.652 47.6551C257.933 47.8731 258.192 48.1136 258.429 48.381C258.665 48.6484 258.873 48.9372 259.056 49.2463C259.239 49.5554 259.39 49.876 259.511 50.2146C259.632 50.5532 259.72 50.9 259.775 51.2549C259.828 51.6065 259.85 51.9618 259.837 52.3185C259.824 52.6753 259.777 53.0291 259.697 53.3721C259.616 53.7196 259.504 54.0519 259.359 54.3734C259.213 54.6949 259.04 54.9968 258.835 55.2834C258.631 55.57 258.402 55.828 258.147 56.0652C257.892 56.3023 257.617 56.513 257.319 56.6907C257.023 56.8716 256.715 57.0194 256.388 57.1362Z" fill="white" fill-opacity="0.17"/>
<path d="M264.756 80.5289C264.43 80.6458 264.094 80.7283 263.75 80.7764C263.41 80.8235 263.065 80.8383 262.717 80.8165C262.37 80.7947 262.025 80.7384 261.689 80.6487C261.349 80.5569 261.023 80.4338 260.707 80.2772C260.391 80.1206 260.094 79.935 259.81 79.7181C259.527 79.5012 259.271 79.2595 259.034 78.9921C258.797 78.7247 258.586 78.4371 258.407 78.1268C258.224 77.8177 258.072 77.4939 257.952 77.1586C257.831 76.8199 257.743 76.4731 257.688 76.1182C257.63 75.7645 257.612 75.4114 257.624 75.0513C257.637 74.6945 257.682 74.3452 257.764 73.9977C257.847 73.6535 257.959 73.3213 258.104 72.9997C258.249 72.6782 258.422 72.3731 258.627 72.0898C258.829 71.8043 259.061 71.5452 259.316 71.308C259.57 71.0708 259.845 70.8601 260.139 70.6803C260.436 70.5027 260.748 70.3538 261.075 70.2369C261.401 70.1201 261.733 70.0387 262.076 69.9872C262.42 69.9391 262.766 69.9276 263.114 69.9494C263.461 69.9712 263.802 70.0252 264.142 70.1171C264.48 70.2057 264.807 70.3321 265.123 70.4887C265.44 70.6452 265.737 70.8309 266.019 71.0445C266.3 71.2625 266.559 71.503 266.796 71.7704C267.033 72.0411 267.24 72.3266 267.423 72.6357C267.606 72.9448 267.758 73.2687 267.879 73.6073C267.999 73.9426 268.087 74.2894 268.142 74.6443C268.196 74.9992 268.219 75.3545 268.205 75.7112C268.192 76.068 268.144 76.4185 268.066 76.7648C267.984 77.1123 267.872 77.4446 267.727 77.7661C267.582 78.0876 267.408 78.3895 267.204 78.6761C266.998 78.9594 266.77 79.2207 266.515 79.4579C266.26 79.695 265.984 79.9024 265.688 80.0834C265.391 80.2643 265.083 80.4121 264.756 80.5289Z" fill="white" fill-opacity="0.17"/>
<path d="M273.123 103.918C272.797 104.035 272.461 104.118 272.119 104.169C271.778 104.216 271.432 104.228 271.084 104.206C270.737 104.184 270.393 104.131 270.056 104.038C269.718 103.95 269.391 103.823 269.075 103.667C268.758 103.51 268.461 103.324 268.177 103.108C267.895 102.894 267.638 102.649 267.401 102.382C267.165 102.114 266.953 101.826 266.775 101.52C266.592 101.21 266.44 100.887 266.319 100.548C266.198 100.209 266.111 99.8659 266.056 99.511C265.998 99.1572 265.979 98.8008 265.993 98.4441C266.006 98.0873 266.051 97.738 266.132 97.3905C266.214 97.043 266.326 96.7107 266.471 96.3892C266.616 96.0677 266.79 95.7658 266.994 95.4792C267.197 95.1971 267.428 94.9346 267.683 94.6974C267.938 94.4603 268.214 94.2529 268.507 94.0731C268.803 93.8921 269.115 93.7432 269.442 93.6264C269.768 93.5095 270.1 93.4282 270.444 93.38C270.788 93.3318 271.133 93.317 271.481 93.3388C271.828 93.3606 272.17 93.418 272.509 93.5066C272.849 93.5984 273.175 93.7215 273.491 93.8781C273.807 94.0347 274.104 94.2203 274.388 94.4372C274.668 94.6553 274.927 94.8958 275.164 95.1632C275.4 95.4306 275.609 95.7194 275.791 96.0285C275.974 96.3376 276.125 96.6581 276.246 96.9967C276.367 97.3354 276.455 97.6822 276.51 98.0371C276.563 98.3887 276.586 98.7439 276.573 99.1007C276.559 99.4574 276.512 99.8112 276.433 100.154C276.351 100.502 276.239 100.834 276.094 101.156C275.949 101.477 275.776 101.782 275.571 102.066C275.366 102.352 275.137 102.61 274.882 102.847C274.628 103.084 274.353 103.295 274.056 103.476C273.758 103.654 273.45 103.802 273.123 103.918Z" fill="white" fill-opacity="0.17"/>
<path d="M277.811 117.022C275.067 118.004 273.672 121.102 274.688 123.944C274.95 124.674 275.345 125.316 275.84 125.85C278.795 125.216 281.754 124.54 284.708 123.831C285.023 122.745 285.03 121.551 284.616 120.393C283.599 117.551 280.556 116.041 277.811 117.022Z" fill="white" fill-opacity="0.17"/>
<path d="M222.47 10.6964C221.452 7.85118 218.409 6.34429 215.665 7.32604C212.924 8.30664 211.525 11.4024 212.542 14.2477C213.56 17.0929 216.606 18.5986 219.347 17.618C222.091 16.6363 223.485 13.535 222.47 10.6964Z" fill="white" fill-opacity="0.17"/>
<path d="M230.838 34.0892C229.82 31.2439 226.778 29.737 224.033 30.7188C221.292 31.6994 219.893 34.7952 220.911 37.6404C221.927 40.4823 224.974 41.9914 227.715 41.0108C230.459 40.029 231.853 36.9278 230.838 34.0892Z" fill="white" fill-opacity="0.17"/>
<path d="M239.205 57.4786C238.187 54.6334 235.145 53.1265 232.4 54.1082C229.659 55.0888 228.26 58.1846 229.278 61.0299C230.296 63.8751 233.341 65.3808 236.082 64.4002C238.827 63.4185 240.223 60.3239 239.205 57.4786Z" fill="white" fill-opacity="0.17"/>
<path d="M247.573 80.8713C246.555 78.0261 243.513 76.5192 240.769 77.5009C238.028 78.4815 236.628 81.5773 237.646 84.4226C238.663 87.2645 241.709 88.7735 244.451 87.7929C247.195 86.8112 248.59 83.7132 247.573 80.8713Z" fill="white" fill-opacity="0.17"/>
<path d="M255.94 104.261C254.922 101.416 251.88 99.9086 249.136 100.89C246.395 101.871 244.995 104.967 246.013 107.812C247.031 110.657 250.076 112.163 252.818 111.182C255.562 110.201 256.958 107.106 255.94 104.261Z" fill="white" fill-opacity="0.17"/>
<path d="M257.505 124.286C255.293 125.078 253.979 127.252 254.081 129.556C257.528 129.147 260.975 128.644 264.414 128.058C264.376 127.922 264.357 127.79 264.309 127.653C263.293 124.815 260.25 123.305 257.505 124.286Z" fill="white" fill-opacity="0.17"/>
<path d="M193.791 -5.43449C192.773 -8.27973 189.731 -9.78661 186.987 -8.80487C184.242 -7.82312 182.846 -4.72848 183.864 -1.88324C184.882 0.962003 187.924 2.46889 190.668 1.48714C193.413 0.505395 194.809 -2.58924 193.791 -5.43449Z" fill="white" fill-opacity="0.17"/>
<path d="M202.16 17.9616C201.143 15.1163 198.1 13.6094 195.356 14.5912C192.612 15.5729 191.216 18.6676 192.233 21.5128C193.251 24.3581 196.293 25.8649 199.038 24.8832C201.782 23.9015 203.176 20.8002 202.16 17.9616Z" fill="white" fill-opacity="0.17"/>
<path d="M210.529 41.3543C209.511 38.5091 206.469 37.0022 203.724 37.9839C200.98 38.9657 199.584 42.0603 200.602 44.9056C201.618 47.7475 204.662 49.2577 207.406 48.2759C210.15 47.2942 211.544 44.1929 210.529 41.3543Z" fill="white" fill-opacity="0.17"/>
<path d="M218.896 64.7438C217.878 61.8985 214.836 60.3916 212.091 61.3734C209.347 62.3551 207.951 65.4498 208.969 68.295C209.987 71.1403 213.029 72.6471 215.773 71.6654C218.518 70.6836 219.914 67.589 218.896 64.7438Z" fill="white" fill-opacity="0.17"/>
<path d="M227.264 88.1365C226.246 85.2912 223.204 83.7843 220.46 84.7661C217.715 85.7478 216.319 88.8425 217.337 91.6877C218.354 94.5296 221.397 96.0398 224.141 95.0581C226.886 94.0763 228.281 90.9784 227.264 88.1365Z" fill="white" fill-opacity="0.17"/>
<path d="M235.631 111.526C234.613 108.681 231.571 107.174 228.827 108.156C226.082 109.137 224.686 112.232 225.704 115.077C226.722 117.922 229.764 119.429 232.509 118.448C235.253 117.466 236.649 114.371 235.631 111.526Z" fill="white" fill-opacity="0.17"/>
<path d="M173.488 1.82839C172.471 -1.01685 169.425 -2.52259 166.684 -1.54199C163.94 -0.560241 162.543 2.5344 163.561 5.37964C164.579 8.22488 167.621 9.73177 170.366 8.75002C173.107 7.76942 174.506 4.67364 173.488 1.82839Z" fill="white" fill-opacity="0.17"/>
<path d="M181.858 25.2245C180.84 22.3792 177.795 20.8735 175.053 21.8541C172.309 22.8358 170.913 25.9305 171.931 28.7757C172.949 31.6209 175.991 33.1278 178.735 32.1461C181.476 31.1655 182.873 28.0631 181.858 25.2245Z" fill="white" fill-opacity="0.17"/>
<path d="M190.226 48.6172C189.208 45.7719 186.163 44.2662 183.422 45.2468C180.677 46.2285 179.281 49.3232 180.299 52.1684C181.316 55.0103 184.359 56.5206 187.103 55.5388C189.845 54.5582 191.242 51.4558 190.226 48.6172Z" fill="white" fill-opacity="0.17"/>
<path d="M198.593 72.0066C197.575 69.1614 194.53 67.6557 191.789 68.6363C189.044 69.618 187.648 72.7126 188.666 75.5579C189.684 78.4031 192.726 79.91 195.471 78.9283C198.212 77.9477 199.611 74.8519 198.593 72.0066Z" fill="white" fill-opacity="0.17"/>
<path d="M206.962 95.3993C205.944 92.5541 202.898 91.0484 200.157 92.029C197.413 93.0107 196.017 96.1053 197.034 98.9506C198.051 101.793 201.094 103.303 203.839 102.321C206.58 101.34 207.978 98.2413 206.962 95.3993Z" fill="white" fill-opacity="0.17"/>
<path d="M215.329 118.789C214.311 115.944 211.265 114.438 208.524 115.418C205.78 116.4 204.384 119.495 205.401 122.34C206.419 125.185 209.462 126.692 212.206 125.71C214.947 124.73 216.346 121.634 215.329 118.789Z" fill="white" fill-opacity="0.17"/>
<path d="M150.06 16.014C149.736 16.1297 149.401 16.2122 149.057 16.2604C148.713 16.3085 148.368 16.3234 148.021 16.3016C147.673 16.2798 147.331 16.2224 146.993 16.1338C146.653 16.042 146.327 15.9188 146.011 15.7623C145.695 15.6057 145.397 15.4201 145.114 15.2032C144.835 14.9884 144.574 14.7446 144.338 14.4772C144.101 14.2098 143.893 13.921 143.71 13.6119C143.529 13.3062 143.377 12.9823 143.255 12.6436C143.134 12.305 143.046 11.9582 142.993 11.6066C142.938 11.2517 142.916 10.8965 142.929 10.5397C142.942 10.183 142.989 9.82916 143.069 9.48613C143.15 9.13863 143.263 8.80636 143.408 8.48484C143.553 8.16332 143.726 7.86148 143.931 7.57487C144.137 7.29158 144.365 7.03026 144.619 6.7931C144.874 6.55593 145.149 6.34522 145.447 6.16758C145.743 5.98662 146.055 5.83772 146.378 5.72202C146.705 5.60517 147.04 5.52267 147.384 5.47451C147.727 5.42304 148.07 5.41266 148.42 5.43331C148.768 5.45511 149.11 5.51252 149.448 5.60106C149.785 5.69408 150.111 5.8172 150.427 5.97376C150.743 6.13032 151.044 6.31482 151.324 6.53287C151.606 6.74645 151.864 6.99141 152.1 7.25882C152.337 7.52622 152.548 7.81389 152.731 8.12298C152.909 8.4299 153.061 8.75376 153.183 9.0924C153.304 9.43104 153.392 9.77782 153.448 10.1283C153.503 10.4832 153.522 10.8396 153.509 11.1963C153.496 11.5531 153.452 11.9057 153.369 12.2499C153.291 12.5963 153.175 12.9297 153.03 13.2512C152.885 13.5727 152.712 13.8746 152.51 14.16C152.305 14.4433 152.077 14.7046 151.822 14.9418C151.564 15.1801 151.291 15.3864 150.995 15.5673C150.698 15.7483 150.386 15.8972 150.06 16.014Z" fill="white" fill-opacity="0.17"/>
<path d="M158.429 39.4101C158.106 39.5258 157.771 39.6083 157.427 39.6564C157.084 39.7079 156.738 39.7194 156.39 39.6976C156.043 39.6758 155.702 39.6218 155.362 39.5299C155.022 39.438 154.696 39.3149 154.38 39.1583C154.064 39.0018 153.767 38.8161 153.483 38.5992C153.204 38.3845 152.944 38.1407 152.707 37.8733C152.471 37.6059 152.262 37.3171 152.081 37.0113C151.898 36.7022 151.746 36.3783 151.625 36.0397C151.504 35.7011 151.417 35.3576 151.362 35.0027C151.308 34.6478 151.285 34.2925 151.298 33.9358C151.312 33.579 151.36 33.2285 151.438 32.8822C151.52 32.5347 151.632 32.2024 151.777 31.8809C151.922 31.5594 152.096 31.2575 152.3 30.9709C152.506 30.6876 152.734 30.4263 152.989 30.1892C153.243 29.952 153.52 29.7446 153.816 29.5636C154.113 29.3827 154.424 29.2338 154.748 29.1181C155.074 29.0012 155.41 28.9187 155.754 28.8706C156.097 28.8224 156.439 28.8087 156.79 28.8294C157.137 28.8512 157.479 28.9086 157.818 28.9971C158.155 29.0901 158.48 29.2133 158.797 29.3698C159.113 29.5264 159.413 29.7109 159.694 29.9289C159.977 30.1458 160.233 30.3875 160.47 30.6549C160.706 30.9223 160.918 31.2099 161.1 31.519C161.28 31.8293 161.431 32.1498 161.552 32.4885C161.673 32.8271 161.761 33.1739 161.819 33.5276C161.873 33.8792 161.892 34.2356 161.878 34.5924C161.865 34.9492 161.822 35.3018 161.739 35.646C161.66 35.9923 161.545 36.3257 161.4 36.6473C161.255 36.9688 161.081 37.2706 160.88 37.5561C160.675 37.8427 160.446 38.1007 160.191 38.3379C159.933 38.5762 159.662 38.7857 159.364 38.9634C159.068 39.1443 158.756 39.2932 158.429 39.4101Z" fill="white" fill-opacity="0.17"/>
<path d="M166.798 62.8028C166.474 62.9185 166.139 63.001 165.795 63.0492C165.451 63.0973 165.106 63.1122 164.759 63.0904C164.411 63.0686 164.069 63.0112 163.73 62.9226C163.391 62.8308 163.065 62.7076 162.749 62.5511C162.433 62.3945 162.134 62.2055 161.852 61.992C161.571 61.7739 161.312 61.5334 161.075 61.266C160.839 60.9986 160.631 60.7098 160.448 60.4007C160.265 60.0916 160.113 59.7678 159.993 59.4324C159.872 59.0938 159.784 58.747 159.729 58.3921C159.675 58.0372 159.652 57.6819 159.666 57.3252C159.679 56.9684 159.727 56.618 159.805 56.2716C159.888 55.9274 160 55.5951 160.145 55.2736C160.29 54.9521 160.463 54.647 160.669 54.3637C160.873 54.077 161.101 53.8157 161.357 53.5819C161.612 53.3447 161.887 53.134 162.183 52.953C162.48 52.7721 162.792 52.6265 163.116 52.5108C163.442 52.394 163.777 52.3081 164.121 52.26C164.465 52.2118 164.808 52.2015 165.158 52.2221C165.504 52.2406 165.846 52.298 166.186 52.3899C166.522 52.4795 166.849 52.606 167.165 52.7626C167.481 52.9191 167.782 53.1036 168.061 53.3183C168.344 53.5352 168.6 53.7769 168.837 54.0443C169.074 54.3117 169.285 54.5994 169.468 54.9084C169.647 55.2187 169.799 55.5425 169.92 55.8812C170.04 56.2165 170.128 56.5633 170.186 56.9171C170.241 57.272 170.26 57.6284 170.247 57.9851C170.233 58.3419 170.189 58.6912 170.107 59.0387C170.028 59.3817 169.913 59.7185 169.768 60.04C169.623 60.3615 169.449 60.6634 169.248 60.9488C169.042 61.2321 168.814 61.4934 168.56 61.7306C168.302 61.9689 168.029 62.1752 167.732 62.3561C167.436 62.5371 167.124 62.686 166.798 62.8028Z" fill="white" fill-opacity="0.17"/>
<path d="M175.165 86.1923C174.841 86.308 174.506 86.3905 174.163 86.442C173.819 86.4901 173.473 86.5016 173.126 86.4798C172.778 86.458 172.437 86.404 172.098 86.3121C171.758 86.2202 171.432 86.0971 171.116 85.9405C170.8 85.784 170.502 85.5983 170.219 85.3814C169.94 85.1667 169.679 84.9229 169.442 84.6555C169.206 84.3881 168.998 84.0993 168.816 83.7935C168.633 83.4844 168.481 83.1605 168.36 82.8219C168.239 82.4833 168.152 82.1398 168.098 81.7849C168.043 81.43 168.021 81.0747 168.034 80.718C168.047 80.3612 168.095 80.0107 168.174 79.6644C168.255 79.3169 168.367 78.9846 168.512 78.6631C168.658 78.3416 168.831 78.0397 169.036 77.7531C169.241 77.4698 169.469 77.2085 169.724 76.9714C169.979 76.7342 170.255 76.5268 170.552 76.3458C170.848 76.1649 171.16 76.016 171.483 75.9003C171.81 75.7834 172.145 75.7009 172.489 75.6528C172.833 75.6046 173.175 75.5909 173.525 75.6116C173.873 75.6334 174.215 75.6908 174.553 75.7793C174.89 75.8723 175.216 75.9955 175.532 76.152C175.848 76.3086 176.149 76.4931 176.429 76.7111C176.713 76.928 176.969 77.1697 177.205 77.4371C177.442 77.7045 177.653 77.9921 177.836 78.3012C178.016 78.6115 178.166 78.932 178.287 79.2707C178.409 79.6093 178.497 79.9561 178.554 80.3098C178.608 80.6614 178.627 81.0178 178.614 81.3746C178.601 81.7313 178.557 82.084 178.474 82.4282C178.396 82.7745 178.28 83.1079 178.135 83.4295C177.99 83.751 177.816 84.0528 177.615 84.3383C177.411 84.6249 177.181 84.8829 176.927 85.1201C176.669 85.3584 176.397 85.5679 176.099 85.7456C175.803 85.9265 175.491 86.0754 175.165 86.1923Z" fill="white" fill-opacity="0.17"/>
<path d="M183.533 109.585C183.21 109.701 182.874 109.783 182.53 109.831C182.186 109.879 181.841 109.894 181.494 109.873C181.147 109.851 180.805 109.793 180.466 109.705C180.126 109.613 179.8 109.49 179.484 109.333C179.168 109.177 178.87 108.991 178.587 108.774C178.307 108.556 178.047 108.316 177.811 108.048C177.574 107.781 177.366 107.492 177.183 107.183C177.001 106.874 176.849 106.55 176.729 106.215C176.607 105.876 176.52 105.529 176.465 105.174C176.41 104.819 176.389 104.467 176.401 104.107C176.414 103.751 176.462 103.4 176.541 103.054C176.623 102.71 176.736 102.377 176.881 102.056C177.026 101.734 177.198 101.429 177.404 101.146C177.609 100.859 177.838 100.601 178.092 100.364C178.347 100.127 178.622 99.9162 178.919 99.7352C179.216 99.5576 179.528 99.4087 179.851 99.293C180.178 99.1761 180.513 99.0936 180.856 99.0421C181.2 98.994 181.543 98.9836 181.894 99.0043C182.241 99.0261 182.582 99.0801 182.922 99.172C183.257 99.2617 183.584 99.3882 183.9 99.5447C184.216 99.7013 184.517 99.8858 184.796 100.101C185.08 100.317 185.336 100.559 185.572 100.826C185.81 101.097 186.02 101.382 186.203 101.691C186.383 102.001 186.535 102.325 186.656 102.663C186.776 102.999 186.864 103.345 186.922 103.699C186.976 104.054 186.995 104.411 186.982 104.767C186.969 105.124 186.924 105.473 186.843 105.821C186.764 106.167 186.649 106.501 186.504 106.822C186.359 107.144 186.185 107.446 185.983 107.731C185.778 108.014 185.55 108.276 185.295 108.513C185.037 108.751 184.764 108.957 184.468 109.138C184.171 109.319 183.86 109.468 183.533 109.585Z" fill="white" fill-opacity="0.17"/>
<path d="M121.384 -0.110231C121.057 0.00661664 120.725 0.0879725 120.381 0.136129C120.037 0.184285 119.691 0.195805 119.345 0.177328C118.997 0.15553 118.655 0.0981253 118.315 0.0062582C117.977 -0.0822892 117.65 -0.208735 117.335 -0.361975C117.019 -0.518535 116.72 -0.707499 116.438 -0.921082C116.157 -1.13913 115.898 -1.37962 115.661 -1.64703C115.425 -1.91443 115.217 -2.20325 115.034 -2.51234C114.851 -2.82143 114.699 -3.14529 114.578 -3.48393C114.458 -3.81925 114.37 -4.16603 114.315 -4.52094C114.261 -4.87585 114.238 -5.23111 114.252 -5.58787C114.265 -5.94463 114.313 -6.29509 114.391 -6.64145C114.474 -6.98562 114.585 -7.32122 114.73 -7.64274C114.875 -7.96426 115.049 -8.2661 115.255 -8.54939C115.459 -8.836 115.687 -9.09732 115.942 -9.33448C116.197 -9.57164 116.473 -9.77904 116.769 -9.96C117.066 -10.141 117.374 -10.2887 117.701 -10.4056C118.027 -10.5224 118.363 -10.6049 118.707 -10.6531C119.047 -10.7001 119.393 -10.7149 119.74 -10.6931C120.087 -10.6713 120.432 -10.6151 120.769 -10.522C121.108 -10.4335 121.434 -10.3104 121.75 -10.1538C122.066 -9.99726 122.368 -9.80944 122.647 -9.59471C122.93 -9.37781 123.187 -9.13617 123.423 -8.86876C123.66 -8.60136 123.871 -8.31369 124.054 -8.0046C124.233 -7.69436 124.385 -7.3705 124.505 -7.03518C124.626 -6.69654 124.714 -6.34976 124.772 -5.996C124.827 -5.64108 124.846 -5.28468 124.833 -4.92792C124.82 -4.57116 124.775 -4.22184 124.693 -3.87434C124.614 -3.53131 124.499 -3.19457 124.354 -2.87305C124.208 -2.55485 124.035 -2.24969 123.83 -1.9664C123.628 -1.68093 123.397 -1.41847 123.143 -1.18131C122.887 -0.947468 122.612 -0.736747 122.318 -0.556937C122.022 -0.37598 121.71 -0.227079 121.384 -0.110231Z" fill="white" fill-opacity="0.17"/>
<path d="M129.751 23.2792C129.424 23.396 129.092 23.4774 128.748 23.5255C128.404 23.5737 128.059 23.5885 127.712 23.5667C127.364 23.5449 127.022 23.4875 126.684 23.399C126.344 23.3071 126.018 23.184 125.702 23.0274C125.386 22.8709 125.088 22.6852 124.805 22.4683C124.526 22.2536 124.265 22.0098 124.029 21.7424C123.792 21.475 123.584 21.1862 123.401 20.8771C123.219 20.5713 123.068 20.2474 122.946 19.9088C122.825 19.5702 122.737 19.2234 122.684 18.8718C122.629 18.5169 122.607 18.1616 122.62 17.8049C122.633 17.4481 122.68 17.0943 122.76 16.7513C122.841 16.4038 122.953 16.0715 123.099 15.75C123.244 15.4285 123.417 15.1266 123.622 14.84C123.828 14.5567 124.056 14.2954 124.31 14.0583C124.565 13.8211 124.84 13.6104 125.138 13.4327C125.434 13.2518 125.742 13.104 126.069 12.9872C126.396 12.8703 126.731 12.7878 127.075 12.7397C127.415 12.6893 127.761 12.6778 128.108 12.6996C128.456 12.7214 128.801 12.7777 129.136 12.8674C129.476 12.9592 129.802 13.0824 130.118 13.2389C130.434 13.3955 130.735 13.58 131.015 13.798C131.297 14.0116 131.555 14.2566 131.791 14.524C132.028 14.7914 132.239 15.079 132.422 15.3881C132.6 15.695 132.752 16.0189 132.874 16.3576C132.995 16.6962 133.083 17.043 133.139 17.3934C133.194 17.7483 133.213 18.1047 133.2 18.4615C133.187 18.8182 133.143 19.1709 133.06 19.5151C132.982 19.8614 132.866 20.1948 132.721 20.5164C132.576 20.8379 132.403 21.1397 132.198 21.4263C131.996 21.7085 131.764 21.9709 131.51 22.2081C131.255 22.4453 130.979 22.6527 130.685 22.8325C130.389 23.0134 130.077 23.1623 129.751 23.2792Z" fill="white" fill-opacity="0.17"/>
<path d="M138.12 46.6753C137.794 46.7921 137.462 46.8735 137.118 46.9216C136.775 46.9731 136.429 46.9846 136.081 46.9628C135.734 46.941 135.393 46.8869 135.053 46.7951C134.713 46.7032 134.387 46.5801 134.071 46.4235C133.755 46.2669 133.458 46.0813 133.174 45.8644C132.895 45.6497 132.635 45.4059 132.398 45.1385C132.161 44.8711 131.953 44.5822 131.772 44.2765C131.589 43.9674 131.437 43.6435 131.316 43.3049C131.195 42.9662 131.108 42.6228 131.053 42.2679C130.999 41.913 130.976 41.5577 130.989 41.2009C131.003 40.8442 131.051 40.4937 131.129 40.1474C131.211 39.7999 131.323 39.4676 131.468 39.1461C131.613 38.8245 131.787 38.5227 131.991 38.2361C132.197 37.9528 132.425 37.6915 132.68 37.4543C132.934 37.2172 133.211 37.0098 133.507 36.8288C133.804 36.6478 134.112 36.5001 134.439 36.3832C134.765 36.2664 135.1 36.1839 135.444 36.1357C135.785 36.0887 136.13 36.0739 136.478 36.0957C136.825 36.1175 137.17 36.1737 137.506 36.2634C137.846 36.3553 138.171 36.4784 138.487 36.635C138.804 36.7915 139.104 36.976 139.385 37.1941C139.668 37.411 139.924 37.6526 140.161 37.92C140.397 38.1874 140.609 38.4751 140.791 38.7842C140.971 39.0944 141.122 39.415 141.243 39.7536C141.364 40.0923 141.452 40.439 141.51 40.7928C141.564 41.1444 141.583 41.5008 141.569 41.8576C141.556 42.2143 141.513 42.567 141.43 42.9111C141.351 43.2575 141.236 43.5909 141.091 43.9124C140.946 44.234 140.772 44.5358 140.568 44.8224C140.366 45.1079 140.134 45.367 139.879 45.6042C139.624 45.8413 139.349 46.0521 139.055 46.2285C138.759 46.4095 138.447 46.5584 138.12 46.6753Z" fill="white" fill-opacity="0.17"/>
<path d="M146.489 70.068C146.162 70.1848 145.83 70.2662 145.486 70.3143C145.142 70.3625 144.797 70.3773 144.449 70.3555C144.102 70.3337 143.76 70.2763 143.421 70.1878C143.082 70.0959 142.756 69.9728 142.44 69.8162C142.124 69.6597 141.825 69.4707 141.543 69.2571C141.262 69.0391 141.003 68.7986 140.766 68.5312C140.53 68.2638 140.322 67.975 140.139 67.6659C139.956 67.3568 139.804 67.0329 139.684 66.6976C139.563 66.359 139.475 66.0122 139.42 65.6573C139.366 65.3024 139.343 64.9471 139.357 64.5903C139.37 64.2336 139.418 63.8831 139.496 63.5368C139.579 63.1926 139.691 62.8603 139.836 62.5388C139.981 62.2173 140.154 61.9121 140.36 61.6288C140.564 61.3422 140.792 61.0809 141.048 60.8471C141.303 60.6099 141.578 60.3992 141.874 60.2182C142.171 60.0373 142.48 59.8928 142.807 59.776C143.133 59.6591 143.468 59.5733 143.812 59.5251C144.152 59.4781 144.499 59.4666 144.846 59.4884C145.192 59.5069 145.537 59.5632 145.874 59.6562C146.213 59.7447 146.54 59.8712 146.856 60.0277C147.172 60.1843 147.473 60.3688 147.752 60.5835C148.035 60.8004 148.291 61.042 148.528 61.3095C148.764 61.5769 148.976 61.8645 149.159 62.1736C149.338 62.4839 149.49 62.8077 149.611 63.1464C149.731 63.4817 149.819 63.8285 149.877 64.1822C149.932 64.5371 149.951 64.8935 149.938 65.2503C149.924 65.6071 149.88 65.9564 149.798 66.3039C149.719 66.6469 149.604 66.9836 149.459 67.3052C149.314 67.6267 149.14 67.9285 148.936 68.2151C148.733 68.4973 148.502 68.7597 148.247 68.9969C147.993 69.2341 147.717 69.4415 147.423 69.6213C147.127 69.8022 146.815 69.9511 146.489 70.068Z" fill="white" fill-opacity="0.17"/>
<path d="M154.856 93.4574C154.529 93.5743 154.197 93.6556 153.854 93.7071C153.51 93.7553 153.164 93.7668 152.817 93.745C152.469 93.7232 152.128 93.6691 151.789 93.5772C151.449 93.4854 151.123 93.3622 150.807 93.2057C150.491 93.0491 150.193 92.8635 149.91 92.6466C149.631 92.4319 149.37 92.188 149.133 91.9206C148.897 91.6532 148.689 91.3644 148.507 91.0586C148.324 90.7496 148.172 90.4257 148.051 90.0871C147.93 89.7484 147.843 89.405 147.789 89.05C147.734 88.6951 147.712 88.3399 147.725 87.9831C147.738 87.6264 147.786 87.2759 147.864 86.9295C147.946 86.582 148.058 86.2498 148.203 85.9282C148.348 85.6067 148.522 85.3049 148.727 85.0183C148.932 84.735 149.16 84.4737 149.415 84.2365C149.67 83.9993 149.946 83.7919 150.242 83.611C150.539 83.43 150.847 83.2823 151.174 83.1654C151.501 83.0486 151.836 82.9661 152.18 82.9179C152.521 82.8709 152.866 82.8561 153.213 82.8779C153.56 82.8997 153.906 82.9559 154.241 83.0456C154.581 83.1375 154.907 83.2606 155.223 83.4172C155.539 83.5737 155.84 83.7582 156.12 83.9763C156.404 84.1932 156.66 84.4348 156.896 84.7022C157.133 84.9696 157.344 85.2573 157.527 85.5664C157.706 85.8766 157.857 86.1972 157.978 86.5358C158.1 86.8744 158.187 87.2212 158.245 87.575C158.299 87.9266 158.318 88.283 158.305 88.6397C158.292 88.9965 158.248 89.3491 158.165 89.6933C158.087 90.0397 157.971 90.3731 157.826 90.6946C157.681 91.0161 157.507 91.318 157.303 91.6046C157.102 91.8901 156.869 92.1492 156.615 92.3864C156.36 92.6235 156.085 92.8342 155.79 93.0107C155.494 93.1917 155.182 93.3406 154.856 93.4574Z" fill="white" fill-opacity="0.17"/>
<path d="M104.203 0.227715C103.186 -2.61421 100.139 -4.12327 97.3981 -3.14267C96.9594 -2.98572 96.5716 -2.75712 96.2041 -2.50207C96.4871 0.692172 96.8633 3.8643 97.3339 7.01764C98.4988 7.50719 99.8161 7.60516 101.081 7.15266C103.819 6.17321 105.22 3.07296 104.203 0.227715Z" fill="white" fill-opacity="0.17"/>
<path d="M112.571 23.6204C111.553 20.7752 108.508 19.2695 105.766 20.2501C103.022 21.2318 101.626 24.3264 102.644 27.1717C103.661 30.0169 106.704 31.5238 109.448 30.5421C112.186 29.5626 113.589 26.4657 112.571 23.6204Z" fill="white" fill-opacity="0.17"/>
<path d="M117.818 53.9381C120.559 52.9575 121.958 49.8618 120.94 47.0165C119.922 44.1713 116.877 42.6655 114.136 43.6461C111.526 44.5798 110.163 47.4341 110.906 50.1568C111.258 50.8473 111.601 51.5446 111.969 52.2294C113.368 53.9385 115.675 54.7045 117.818 53.9381Z" fill="white" fill-opacity="0.17"/>
<path d="M129.309 70.4092C128.291 67.564 125.245 66.0583 122.504 67.0389C122.139 67.1695 121.809 67.3363 121.493 67.5353C123.576 70.4301 125.799 73.2601 128.157 76.0264C129.507 74.5998 130.037 72.4444 129.309 70.4092Z" fill="white" fill-opacity="0.17"/>
</g>
<defs>
<clipPath id="clip0_10_51">
<rect width="677" height="653" fill="white" transform="translate(614.843 -479) rotate(70.3163)"/>
</clipPath>
</defs>
</svg>
