<svg width="197" height="157" viewBox="0 0 197 157" fill="none" xmlns="http://www.w3.org/2000/svg">
<path d="M30.1313 32.6606C24.3329 44.4847 36.2405 62.8735 28.2802 66.4672C24.8229 68.028 13.2955 68.8939 6.67722 77.3796C-1.34701 87.6679 -3.50512 105.146 7.91195 115.745C19.6391 126.631 23.9594 117.464 25.1938 126.631C26.4283 135.799 33.8902 143.08 45.5622 149.551C55.7091 155.176 75.6163 156.427 86.9166 149.551C98.2169 142.675 98.6779 128.744 112.65 126.631C120.395 125.46 126.419 127.777 126.419 127.777C126.419 127.777 138.316 129.569 146.325 129.496C162.148 129.354 177.419 122.063 185.288 112.322C193.158 102.581 194.061 99.5359 196.09 90.2619C197.888 82.0384 196.591 77.7019 195.857 69.9051C195.147 62.362 188.759 51.5694 188.759 51.5694C188.759 51.5694 181.352 40.1095 165.613 32.6606C149.874 25.2117 119.629 31.5146 117.778 32.6606C115.926 33.8066 107.902 36.0986 103.582 27.5037C99.2609 18.9088 88.7681 11.4599 75.8063 10.3139C62.8446 9.16791 60.9929 10.3139 60.9929 10.3139C60.9929 10.3139 48.0311 13.7518 45.5622 15.4708C43.0933 17.1898 35.9297 20.8365 30.1313 32.6606Z" fill="url(#paint0_linear_8_33)"/>
<ellipse cx="119.013" cy="11.4599" rx="12.3445" ry="11.4599" fill="url(#paint1_linear_8_33)"/>
<ellipse cx="11.6152" cy="59.5912" rx="7.40673" ry="6.87591" fill="url(#paint2_linear_8_33)"/>
<ellipse cx="123.333" cy="147.259" rx="10.4929" ry="9.74088" fill="url(#paint3_linear_8_33)"/>
<defs>
<linearGradient id="paint0_linear_8_33" x1="-4.32059" y1="93.0983" x2="198.722" y2="88.7629" gradientUnits="userSpaceOnUse">
<stop stop-color="#FFF7FC"/>
<stop offset="0.0001" stop-color="#FFF7FC"/>
<stop offset="1" stop-color="#F812A1"/>
</linearGradient>
<linearGradient id="paint1_linear_8_33" x1="106.127" y1="13.2165" x2="131.577" y2="12.7873" gradientUnits="userSpaceOnUse">
<stop stop-color="#FFF7FC"/>
<stop offset="0.0001" stop-color="#FFF7FC"/>
<stop offset="1" stop-color="#F812A1"/>
</linearGradient>
<linearGradient id="paint2_linear_8_33" x1="3.88359" y1="60.6452" x2="19.1541" y2="60.3877" gradientUnits="userSpaceOnUse">
<stop stop-color="#FFF7FC"/>
<stop offset="0.0001" stop-color="#FFF7FC"/>
<stop offset="1" stop-color="#F812A1"/>
</linearGradient>
<linearGradient id="paint3_linear_8_33" x1="112.38" y1="148.752" x2="134.013" y2="148.387" gradientUnits="userSpaceOnUse">
<stop stop-color="#FFF7FC"/>
<stop offset="0.0001" stop-color="#FFF7FC"/>
<stop offset="1" stop-color="#F812A1"/>
</linearGradient>
</defs>
</svg>
