<svg width="287" height="241" viewBox="0 0 287 241" fill="none" xmlns="http://www.w3.org/2000/svg">
<path d="M142.643 30C138.143 14 98.2564 -0.658117 70.1442 15.9782C61.1819 21.2819 52.5336 23.4071 43.1442 43.5001C34.0596 62.9408 38.852 68.3515 40.8527 80.5C41.8411 86.5017 46.1442 93 43.1442 98C40.1442 103 33.4342 101.092 27.9341 102.092C22.4339 103.092 11.231 108.832 3.14078 126.592C-4.94945 144.352 2.14202 182 29.6426 186C41.6007 187.739 38.6126 196.467 39.5563 205.983C40.5 215.5 64.0564 238.483 95.5564 238.483C127.056 238.483 141.214 213.746 151.144 202C163.482 187.407 170.644 190.5 190.644 197.5C210.644 204.5 235.399 198.951 256.144 182.5C292.323 153.809 297.103 96.8002 265.644 63C241.702 37.2765 194.719 31.5 183.144 42C171.569 52.5001 147.143 46 142.643 30Z" fill="url(#paint0_linear_9_49)"/>
<circle cx="168.643" cy="14.5" r="14.5" fill="url(#paint1_linear_9_49)"/>
<circle cx="178.643" cy="226.5" r="14.5" fill="url(#paint2_linear_9_49)"/>
<circle cx="14.1426" cy="89" r="10" fill="url(#paint3_linear_9_49)"/>
<defs>
<linearGradient id="paint0_linear_9_49" x1="-4" y1="148.356" x2="288.902" y2="103.885" gradientUnits="userSpaceOnUse">
<stop stop-color="#FFCD25"/>
<stop offset="1" stop-color="#F80B97"/>
</linearGradient>
<linearGradient id="paint1_linear_9_49" x1="153.738" y1="17.6286" x2="183.622" y2="13.9891" gradientUnits="userSpaceOnUse">
<stop stop-color="#FFCD25"/>
<stop offset="1" stop-color="#F80B97"/>
</linearGradient>
<linearGradient id="paint2_linear_9_49" x1="163.738" y1="229.629" x2="193.622" y2="225.989" gradientUnits="userSpaceOnUse">
<stop stop-color="#FFCD25"/>
<stop offset="1" stop-color="#F80B97"/>
</linearGradient>
<linearGradient id="paint3_linear_9_49" x1="3.86339" y1="91.1577" x2="24.473" y2="88.6476" gradientUnits="userSpaceOnUse">
<stop stop-color="#FFCD25"/>
<stop offset="1" stop-color="#F80B97"/>
</linearGradient>
</defs>
</svg>
