<svg width="160" height="137" viewBox="0 0 160 137" fill="none" xmlns="http://www.w3.org/2000/svg">
<path d="M24.4086 28.5C19.7114 38.8179 29.3575 54.8641 22.9091 58C20.1084 59.362 10.7703 60.1176 5.40904 67.5223C-1.09118 76.5 -2.83941 91.7512 6.40927 101C15.9091 110.5 19.4089 102.5 20.4089 110.5C21.4089 118.5 27.4536 124.854 36.9088 130.5C45.1285 135.409 61.2548 136.5 70.4089 130.5C79.563 124.5 79.9365 112.344 91.2546 110.5C97.5291 109.478 102.409 111.5 102.409 111.5C102.409 111.5 112.046 113.063 118.534 113C131.352 112.876 143.722 106.514 150.097 98.0136C156.472 89.5136 157.204 86.8562 158.847 78.7636C160.304 71.5876 159.253 67.8035 158.659 61C158.084 54.4178 152.909 45 152.909 45C152.909 45 146.909 35 134.159 28.5C121.409 22 96.9087 27.5 95.4087 28.5C93.9087 29.5 87.4087 31.5 83.9087 24C80.4087 16.5 71.9088 10 61.4088 9.00001C50.9088 8.00001 49.4088 9.00001 49.4088 9.00001C49.4088 9.00001 38.9088 12 36.9088 13.5C34.9088 15 29.1057 18.1821 24.4086 28.5Z" fill="url(#paint0_linear_8_17)"/>
<circle cx="96.4092" cy="10" r="10" fill="url(#paint1_linear_8_17)"/>
<circle cx="9.40918" cy="52" r="6" fill="url(#paint2_linear_8_17)"/>
<circle cx="99.9092" cy="128.5" r="8.5" fill="url(#paint3_linear_8_17)"/>
<defs>
<linearGradient id="paint0_linear_8_17" x1="-3.5" y1="81.2386" x2="160.99" y2="77.9781" gradientUnits="userSpaceOnUse">
<stop stop-color="#32F2AD"/>
<stop offset="0.0001" stop-color="#6516ED"/>
<stop offset="1" stop-color="#F1039F"/>
</linearGradient>
<linearGradient id="paint1_linear_8_17" x1="85.9705" y1="11.5328" x2="106.588" y2="11.2101" gradientUnits="userSpaceOnUse">
<stop stop-color="#32F2AD"/>
<stop offset="0.0001" stop-color="#6516ED"/>
<stop offset="1" stop-color="#F1039F"/>
</linearGradient>
<linearGradient id="paint2_linear_8_17" x1="3.146" y1="52.9197" x2="15.5167" y2="52.726" gradientUnits="userSpaceOnUse">
<stop stop-color="#32F2AD"/>
<stop offset="0.0001" stop-color="#6516ED"/>
<stop offset="1" stop-color="#F1039F"/>
</linearGradient>
<linearGradient id="paint3_linear_8_17" x1="91.0363" y1="129.803" x2="108.561" y2="129.529" gradientUnits="userSpaceOnUse">
<stop stop-color="#32F2AD"/>
<stop offset="0.0001" stop-color="#6516ED"/>
<stop offset="1" stop-color="#F1039F"/>
</linearGradient>
</defs>
</svg>
