<svg width="201" height="147" viewBox="0 0 201 147" fill="none" xmlns="http://www.w3.org/2000/svg">
<path d="M136.704 5.41687C106 28.86 106.704 13.4018 86.7037 9.91699C66.7037 6.43215 55.5182 6.78184 39.7037 21.917C28.8677 35.2639 26.9814 44.4763 29.7037 63.417C32.426 82.3577 23.7061 83.4172 21.2039 85.417C18.7017 87.4169 9.23042 97.8208 8.20549 107.917C4.57206 143.708 50.0757 160.279 69.2013 133.417C69.2013 133.417 72.6715 124.984 77.2017 121.917C83.2134 117.846 87.7265 120.288 94.7017 121.751C101.677 123.215 126.701 120.36 130.702 106.566C134.703 92.7711 143.907 89.9737 151.204 90.9169C158.5 91.86 179.704 92.4169 192.704 72.9169C205.704 53.4169 201.8 30.284 187.406 12.9169C175.206 -1.80287 148.277 -3.41976 136.704 5.41687Z" fill="url(#paint0_linear_9_50)"/>
<circle cx="9.5" cy="68.86" r="9.5" fill="url(#paint1_linear_9_50)"/>
<circle cx="106" cy="136.36" r="6" fill="url(#paint2_linear_9_50)"/>
<circle cx="155" cy="104.36" r="10" fill="url(#paint3_linear_9_50)"/>
<defs>
<linearGradient id="paint0_linear_9_50" x1="26.2423" y1="132.86" x2="194.368" y2="27.1336" gradientUnits="userSpaceOnUse">
<stop stop-color="#06B766"/>
<stop offset="1" stop-color="#3757BA"/>
</linearGradient>
<linearGradient id="paint1_linear_9_50" x1="1.79948" y1="76.5624" x2="20.6411" y2="67.56" gradientUnits="userSpaceOnUse">
<stop stop-color="#06B766"/>
<stop offset="1" stop-color="#3757BA"/>
</linearGradient>
<linearGradient id="paint2_linear_9_50" x1="101.137" y1="141.225" x2="113.036" y2="135.539" gradientUnits="userSpaceOnUse">
<stop stop-color="#06B766"/>
<stop offset="1" stop-color="#3757BA"/>
</linearGradient>
<linearGradient id="paint3_linear_9_50" x1="146.894" y1="112.468" x2="166.727" y2="102.992" gradientUnits="userSpaceOnUse">
<stop stop-color="#06B766"/>
<stop offset="1" stop-color="#3757BA"/>
</linearGradient>
</defs>
</svg>
