<svg width="187" height="127" viewBox="0 0 187 127" fill="none" xmlns="http://www.w3.org/2000/svg">
<path d="M17.7035 49.1652C8.70357 51.6798 -4.47871 71.22 1.50626 87.9034C5.5013 99.0397 10.5258 104.447 21.9703 107.53C31.7167 110.156 39.1273 108.792 47.4276 103.047C61.7037 93.1652 62.3615 102.072 69.7037 105.165C77.0459 108.258 97.8389 112.274 108.824 103.047C119.224 94.3118 126.793 101.028 133.283 103.047C146.651 107.204 156.929 106.062 167.226 100.556C181.598 92.872 186.975 79.9649 186.694 63.6954C186.421 47.9397 181.338 36.189 167.204 29.1652C147.654 19.4499 137.043 27.8276 130.204 28.9718C121.338 30.455 113.783 23.4651 109.761 15.6824C105.739 7.89978 95.3471 3.2423 95.3471 3.2423C95.3471 3.2423 76.2037 -3.33479 63.4008 2.24605C47.9031 9.00161 40.5401 14.4557 38.4253 30.7955C36.3104 47.1352 26.7035 46.6506 17.7035 49.1652Z" fill="url(#paint0_linear_8_32)"/>
<circle cx="18.7035" cy="29.1652" r="10" fill="url(#paint1_linear_8_32)"/>
<circle cx="72.7035" cy="120.165" r="6" fill="url(#paint2_linear_8_32)"/>
<circle cx="125.703" cy="112.165" r="9" fill="url(#paint3_linear_8_32)"/>
<defs>
<linearGradient id="paint0_linear_8_32" x1="0.5" y1="59.0785" x2="193.5" y2="58.4988" gradientUnits="userSpaceOnUse">
<stop offset="0.045841" stop-color="#FEFDFF"/>
<stop offset="0.312112" stop-color="#EEF0F2"/>
<stop offset="1" stop-color="#465AC3"/>
</linearGradient>
<linearGradient id="paint1_linear_8_32" x1="8.75705" y1="30.024" x2="29.4316" y2="29.9878" gradientUnits="userSpaceOnUse">
<stop offset="0.045841" stop-color="#FEFDFF"/>
<stop offset="0.312112" stop-color="#EEF0F2"/>
<stop offset="1" stop-color="#465AC3"/>
</linearGradient>
<linearGradient id="paint2_linear_8_32" x1="66.7356" y1="120.68" x2="79.1403" y2="120.659" gradientUnits="userSpaceOnUse">
<stop offset="0.045841" stop-color="#FEFDFF"/>
<stop offset="0.312112" stop-color="#EEF0F2"/>
<stop offset="1" stop-color="#465AC3"/>
</linearGradient>
<linearGradient id="paint3_linear_8_32" x1="116.752" y1="112.938" x2="135.359" y2="112.906" gradientUnits="userSpaceOnUse">
<stop offset="0.045841" stop-color="#FEFDFF"/>
<stop offset="0.312112" stop-color="#EEF0F2"/>
<stop offset="1" stop-color="#465AC3"/>
</linearGradient>
</defs>
</svg>
